<mxfile host="app.diagrams.net" modified="2024-01-05T12:31:22.314Z" agent="Mozilla/5.0 (Windows NT 10.0; Win64; x64) AppleWebKit/537.36 (KHTML, like Gecko) Chrome/119.0.0.0 Safari/537.36" etag="evaO9GpUrY352WxlKb9P" version="21.6.2" type="github">
  <diagram id="C5RBs43oDa-KdzZeNtuy" name="Page-1">
    <mxGraphModel dx="2114" dy="589" grid="1" gridSize="10" guides="1" tooltips="1" connect="1" arrows="1" fold="1" page="1" pageScale="1" pageWidth="980" pageHeight="1390" math="0" shadow="0">
      <root>
        <mxCell id="WIyWlLk6GJQsqaUBKTNV-0" />
        <mxCell id="WIyWlLk6GJQsqaUBKTNV-1" parent="WIyWlLk6GJQsqaUBKTNV-0" />
        <mxCell id="6dgZI4LltGJ7n1IkP1hy-7" style="edgeStyle=orthogonalEdgeStyle;rounded=0;orthogonalLoop=1;jettySize=auto;html=1;entryX=0.421;entryY=0;entryDx=0;entryDy=0;entryPerimeter=0;" parent="WIyWlLk6GJQsqaUBKTNV-1" source="WIyWlLk6GJQsqaUBKTNV-3" target="6dgZI4LltGJ7n1IkP1hy-0" edge="1">
          <mxGeometry relative="1" as="geometry" />
        </mxCell>
        <mxCell id="WIyWlLk6GJQsqaUBKTNV-3" value="DefaultListableBeanFactory" style="rounded=1;whiteSpace=wrap;html=1;fontSize=12;glass=0;strokeWidth=1;shadow=0;" parent="WIyWlLk6GJQsqaUBKTNV-1" vertex="1">
          <mxGeometry x="210" y="20" width="160" height="40" as="geometry" />
        </mxCell>
        <mxCell id="6dgZI4LltGJ7n1IkP1hy-9" value="" style="edgeStyle=orthogonalEdgeStyle;rounded=0;orthogonalLoop=1;jettySize=auto;html=1;" parent="WIyWlLk6GJQsqaUBKTNV-1" source="6dgZI4LltGJ7n1IkP1hy-0" target="6dgZI4LltGJ7n1IkP1hy-8" edge="1">
          <mxGeometry relative="1" as="geometry" />
        </mxCell>
        <mxCell id="6dgZI4LltGJ7n1IkP1hy-0" value="BeanDefinationRegistry" style="swimlane;fontStyle=0;childLayout=stackLayout;horizontal=1;startSize=26;fillColor=none;horizontalStack=0;resizeParent=1;resizeParentMax=0;resizeLast=0;collapsible=1;marginBottom=0;html=1;" parent="WIyWlLk6GJQsqaUBKTNV-1" vertex="1">
          <mxGeometry x="50" y="110" width="130" height="52" as="geometry" />
        </mxCell>
        <mxCell id="6dgZI4LltGJ7n1IkP1hy-1" value="Iface" style="text;strokeColor=none;fillColor=none;align=left;verticalAlign=top;spacingLeft=4;spacingRight=4;overflow=hidden;rotatable=0;points=[[0,0.5],[1,0.5]];portConstraint=eastwest;whiteSpace=wrap;html=1;" parent="6dgZI4LltGJ7n1IkP1hy-0" vertex="1">
          <mxGeometry y="26" width="130" height="26" as="geometry" />
        </mxCell>
        <mxCell id="6dgZI4LltGJ7n1IkP1hy-11" value="" style="edgeStyle=orthogonalEdgeStyle;rounded=0;orthogonalLoop=1;jettySize=auto;html=1;" parent="WIyWlLk6GJQsqaUBKTNV-1" source="6dgZI4LltGJ7n1IkP1hy-8" target="6dgZI4LltGJ7n1IkP1hy-10" edge="1">
          <mxGeometry relative="1" as="geometry" />
        </mxCell>
        <mxCell id="6dgZI4LltGJ7n1IkP1hy-8" value="registerBeanDefination" style="rounded=1;whiteSpace=wrap;html=1;fillColor=none;fontStyle=0;startSize=26;" parent="WIyWlLk6GJQsqaUBKTNV-1" vertex="1">
          <mxGeometry x="-70" y="210" width="140" height="60" as="geometry" />
        </mxCell>
        <mxCell id="6dgZI4LltGJ7n1IkP1hy-15" value="" style="edgeStyle=orthogonalEdgeStyle;rounded=0;orthogonalLoop=1;jettySize=auto;html=1;" parent="WIyWlLk6GJQsqaUBKTNV-1" source="6dgZI4LltGJ7n1IkP1hy-10" target="6dgZI4LltGJ7n1IkP1hy-14" edge="1">
          <mxGeometry relative="1" as="geometry" />
        </mxCell>
        <mxCell id="6dgZI4LltGJ7n1IkP1hy-10" value="&lt;font style=&quot;font-size: 13px;&quot;&gt;首先判断该类是否是AbstractBeanDefination的子类，该方法主要是判断该&lt;span style=&quot;color: rgb(128, 128, 128); font-family: &amp;quot;JetBrains Mono&amp;quot;, monospace;&quot;&gt;bean&lt;/span&gt;&lt;span style=&quot;font-family: 宋体, monospace; color: rgb(128, 128, 128);&quot;&gt;的方法有没有被复写，如果被复写了，抛出异常&lt;/span&gt;&lt;/font&gt;" style="whiteSpace=wrap;html=1;fillColor=none;rounded=1;fontStyle=0;startSize=26;align=left;" parent="WIyWlLk6GJQsqaUBKTNV-1" vertex="1">
          <mxGeometry x="-260" y="310" width="230" height="60" as="geometry" />
        </mxCell>
        <mxCell id="6dgZI4LltGJ7n1IkP1hy-17" value="是" style="edgeStyle=orthogonalEdgeStyle;rounded=0;orthogonalLoop=1;jettySize=auto;html=1;" parent="WIyWlLk6GJQsqaUBKTNV-1" source="6dgZI4LltGJ7n1IkP1hy-14" edge="1">
          <mxGeometry relative="1" as="geometry">
            <mxPoint x="-270" y="530" as="targetPoint" />
          </mxGeometry>
        </mxCell>
        <mxCell id="6dgZI4LltGJ7n1IkP1hy-32" value="" style="edgeStyle=orthogonalEdgeStyle;rounded=0;orthogonalLoop=1;jettySize=auto;html=1;" parent="WIyWlLk6GJQsqaUBKTNV-1" source="6dgZI4LltGJ7n1IkP1hy-14" target="6dgZI4LltGJ7n1IkP1hy-31" edge="1">
          <mxGeometry relative="1" as="geometry" />
        </mxCell>
        <mxCell id="6dgZI4LltGJ7n1IkP1hy-14" value="是否存在相同名称的bean" style="rhombus;whiteSpace=wrap;html=1;align=left;fillColor=none;rounded=1;fontStyle=0;startSize=26;" parent="WIyWlLk6GJQsqaUBKTNV-1" vertex="1">
          <mxGeometry x="-185" y="440" width="80" height="80" as="geometry" />
        </mxCell>
        <mxCell id="6dgZI4LltGJ7n1IkP1hy-23" value="" style="edgeStyle=orthogonalEdgeStyle;rounded=0;orthogonalLoop=1;jettySize=auto;html=1;" parent="WIyWlLk6GJQsqaUBKTNV-1" source="6dgZI4LltGJ7n1IkP1hy-19" target="6dgZI4LltGJ7n1IkP1hy-22" edge="1">
          <mxGeometry relative="1" as="geometry" />
        </mxCell>
        <mxCell id="6dgZI4LltGJ7n1IkP1hy-24" value="是" style="edgeLabel;html=1;align=center;verticalAlign=middle;resizable=0;points=[];" parent="6dgZI4LltGJ7n1IkP1hy-23" vertex="1" connectable="0">
          <mxGeometry x="0.4022" y="2" relative="1" as="geometry">
            <mxPoint as="offset" />
          </mxGeometry>
        </mxCell>
        <mxCell id="6dgZI4LltGJ7n1IkP1hy-26" value="" style="edgeStyle=orthogonalEdgeStyle;rounded=0;orthogonalLoop=1;jettySize=auto;html=1;" parent="WIyWlLk6GJQsqaUBKTNV-1" source="6dgZI4LltGJ7n1IkP1hy-19" target="6dgZI4LltGJ7n1IkP1hy-25" edge="1">
          <mxGeometry relative="1" as="geometry" />
        </mxCell>
        <mxCell id="6dgZI4LltGJ7n1IkP1hy-27" value="否" style="edgeLabel;html=1;align=center;verticalAlign=middle;resizable=0;points=[];" parent="6dgZI4LltGJ7n1IkP1hy-26" vertex="1" connectable="0">
          <mxGeometry x="-0.0952" y="4" relative="1" as="geometry">
            <mxPoint as="offset" />
          </mxGeometry>
        </mxCell>
        <mxCell id="6dgZI4LltGJ7n1IkP1hy-19" value="判断allowBeanDefinitionOverriding这个变量是否true" style="rhombus;whiteSpace=wrap;html=1;" parent="WIyWlLk6GJQsqaUBKTNV-1" vertex="1">
          <mxGeometry x="-310" y="530" width="80" height="80" as="geometry" />
        </mxCell>
        <mxCell id="ZNeGosp59inDrbmN7WFH-2" style="edgeStyle=orthogonalEdgeStyle;rounded=0;orthogonalLoop=1;jettySize=auto;html=1;entryX=0.45;entryY=-0.011;entryDx=0;entryDy=0;entryPerimeter=0;" parent="WIyWlLk6GJQsqaUBKTNV-1" source="6dgZI4LltGJ7n1IkP1hy-22" target="ZNeGosp59inDrbmN7WFH-1" edge="1">
          <mxGeometry relative="1" as="geometry" />
        </mxCell>
        <mxCell id="6dgZI4LltGJ7n1IkP1hy-22" value="打印日志，bean覆盖" style="rounded=1;whiteSpace=wrap;html=1;" parent="WIyWlLk6GJQsqaUBKTNV-1" vertex="1">
          <mxGeometry x="-459" y="635" width="120" height="60" as="geometry" />
        </mxCell>
        <mxCell id="6dgZI4LltGJ7n1IkP1hy-25" value="抛出异常" style="whiteSpace=wrap;html=1;" parent="WIyWlLk6GJQsqaUBKTNV-1" vertex="1">
          <mxGeometry x="-330" y="680" width="120" height="60" as="geometry" />
        </mxCell>
        <mxCell id="6dgZI4LltGJ7n1IkP1hy-34" value="" style="edgeStyle=orthogonalEdgeStyle;rounded=0;orthogonalLoop=1;jettySize=auto;html=1;" parent="WIyWlLk6GJQsqaUBKTNV-1" source="6dgZI4LltGJ7n1IkP1hy-31" target="6dgZI4LltGJ7n1IkP1hy-33" edge="1">
          <mxGeometry relative="1" as="geometry" />
        </mxCell>
        <mxCell id="6dgZI4LltGJ7n1IkP1hy-35" value="没有" style="edgeLabel;html=1;align=center;verticalAlign=middle;resizable=0;points=[];" parent="6dgZI4LltGJ7n1IkP1hy-34" vertex="1" connectable="0">
          <mxGeometry x="-0.1619" y="-1" relative="1" as="geometry">
            <mxPoint as="offset" />
          </mxGeometry>
        </mxCell>
        <mxCell id="6dgZI4LltGJ7n1IkP1hy-37" value="" style="edgeStyle=orthogonalEdgeStyle;rounded=0;orthogonalLoop=1;jettySize=auto;html=1;" parent="WIyWlLk6GJQsqaUBKTNV-1" source="6dgZI4LltGJ7n1IkP1hy-31" target="6dgZI4LltGJ7n1IkP1hy-36" edge="1">
          <mxGeometry relative="1" as="geometry" />
        </mxCell>
        <mxCell id="6dgZI4LltGJ7n1IkP1hy-38" value="是" style="edgeLabel;html=1;align=center;verticalAlign=middle;resizable=0;points=[];" parent="6dgZI4LltGJ7n1IkP1hy-37" vertex="1" connectable="0">
          <mxGeometry x="-0.5333" y="-2" relative="1" as="geometry">
            <mxPoint as="offset" />
          </mxGeometry>
        </mxCell>
        <mxCell id="6dgZI4LltGJ7n1IkP1hy-31" value="判断是否有bean被初始化过" style="rhombus;whiteSpace=wrap;html=1;align=left;fillColor=none;rounded=1;fontStyle=0;startSize=26;" parent="WIyWlLk6GJQsqaUBKTNV-1" vertex="1">
          <mxGeometry x="-90" y="530" width="80" height="80" as="geometry" />
        </mxCell>
        <mxCell id="ZNeGosp59inDrbmN7WFH-3" style="edgeStyle=orthogonalEdgeStyle;rounded=0;orthogonalLoop=1;jettySize=auto;html=1;" parent="WIyWlLk6GJQsqaUBKTNV-1" source="6dgZI4LltGJ7n1IkP1hy-33" target="ZNeGosp59inDrbmN7WFH-1" edge="1">
          <mxGeometry relative="1" as="geometry" />
        </mxCell>
        <mxCell id="6dgZI4LltGJ7n1IkP1hy-33" value="加入beanDefinationMap和beanDefinationNames中去，然后移除手动注册的bean名称，removeManualSingletonName" style="whiteSpace=wrap;html=1;align=left;fillColor=none;rounded=1;fontStyle=0;startSize=26;" parent="WIyWlLk6GJQsqaUBKTNV-1" vertex="1">
          <mxGeometry x="-140" y="730" width="180" height="60" as="geometry" />
        </mxCell>
        <mxCell id="ZNeGosp59inDrbmN7WFH-4" style="edgeStyle=orthogonalEdgeStyle;rounded=0;orthogonalLoop=1;jettySize=auto;html=1;entryX=0.5;entryY=0;entryDx=0;entryDy=0;" parent="WIyWlLk6GJQsqaUBKTNV-1" source="6dgZI4LltGJ7n1IkP1hy-36" target="ZNeGosp59inDrbmN7WFH-1" edge="1">
          <mxGeometry relative="1" as="geometry" />
        </mxCell>
        <mxCell id="6dgZI4LltGJ7n1IkP1hy-36" value="进入同步模块中，同时注册beanDefinationMap和beanDefinationNames，并且删除手动注册的bean名称，removeManualSingletonName" style="whiteSpace=wrap;html=1;align=left;fillColor=none;rounded=1;fontStyle=0;startSize=26;" parent="WIyWlLk6GJQsqaUBKTNV-1" vertex="1">
          <mxGeometry x="20" y="620" width="170" height="90" as="geometry" />
        </mxCell>
        <mxCell id="6dgZI4LltGJ7n1IkP1hy-39" value="如果bean不是定义为singleton的话。那么在并发请求的时候，有可能会同时创建两个相同名称的bean，但是他们不会被。如果bean是singleton的话，那么bean的生命周期由spring容器管理，而非singleton的bean，生命周期会随着线程，会话而创建和消亡。" style="rounded=0;whiteSpace=wrap;html=1;" parent="WIyWlLk6GJQsqaUBKTNV-1" vertex="1">
          <mxGeometry x="-560" y="360" width="300" height="110" as="geometry" />
        </mxCell>
        <mxCell id="WcZoctm2nQ_hQ6cJ7R50-0" value="" style="shape=image;verticalLabelPosition=bottom;labelBackgroundColor=default;verticalAlign=top;aspect=fixed;imageAspect=0;image=https://user-images.githubusercontent.com/49583266/123829272-e648f580-d934-11eb-9504-f68f42c1bca8.png;" parent="WIyWlLk6GJQsqaUBKTNV-1" vertex="1">
          <mxGeometry x="-300" y="1370" width="1503.24" height="580" as="geometry" />
        </mxCell>
        <mxCell id="ZNeGosp59inDrbmN7WFH-1" value="如果该bean的名称之前已经存在或者在singletonObjects(DefaultSingletonBeanRegistry)中存在该bean名称,,重置所有的bean定义的缓存，包括从这个类中派生的bean缓存,分为以下几步" style="rounded=1;whiteSpace=wrap;html=1;" parent="WIyWlLk6GJQsqaUBKTNV-1" vertex="1">
          <mxGeometry x="-310" y="840" width="270" height="60" as="geometry" />
        </mxCell>
        <mxCell id="ZNeGosp59inDrbmN7WFH-8" value="&lt;font style=&quot;font-size: 8px;&quot;&gt;clearMergedBeanDefination&lt;font style=&quot;font-size: 8px;&quot; face=&quot;Verdana&quot;&gt;,从&lt;/font&gt;mergedBeanDefinitions获取该RootBeanDefination，然后&lt;font style=&quot;background-color: initial;&quot; face=&quot;Verdana&quot;&gt;设置stale属性为true，表示该bean已经过期&lt;/font&gt;&lt;span style=&quot;background-color: initial; font-family: 宋体, monospace;&quot;&gt;了,再从&lt;/span&gt;&lt;/font&gt;mergedBeanDefinitionHolders这个map中移除bean定义" style="rounded=1;whiteSpace=wrap;html=1;" parent="WIyWlLk6GJQsqaUBKTNV-1" vertex="1">
          <mxGeometry x="-350" y="930" width="310" height="60" as="geometry" />
        </mxCell>
        <mxCell id="9zwZI8hLKtS0gk5RLRIU-0" value="" style="shape=image;verticalLabelPosition=bottom;labelBackgroundColor=default;verticalAlign=top;aspect=fixed;imageAspect=0;image=data:image/png,iVBORw0KGgoAAAANSUhEUgAAA/kAAAJWCAYAAAADeEeDAAAgAElEQVR4nOzde3Ab530v/O/iQvAOAiBI3WWJFHWhKdW2Lo6Y41iyZCmynWjeOK5j1248k7ZuJk7s1mlnTpO/knbGJ85xUvX0ZBrPeVMnst0k8x47ShTLcmXFiWjJkqKKNC2JIkXLEiWRIMAreAOBff9YLi7EAliAAHax+H5mNBCBxT7PXp4H+9vnssJTTz0lgoiIiIiIiIgKngUA+r0jWueDiIiIiIiIiDJU77IDAEwa54OIiIiIiIiIsoRBPhEREREREZFBMMgnIiIiIiIiMggG+UREREREREQGwSCfiIiIiIiIyCAsWmeAiIgiapwu2J3OrK5zxOfDsM+b1XUSERERkT4xyCci0hG704lVjU1ZXWdvdxeDfCIiIqIiwe76RERERERERAbBIJ+IiIiIiIjIIBjkExERERERERkEx+QTEenI1e7LuNp9Oea9UE09TCMeQAwl/7JgQsjuhmm4P+10xdqt+PNH74RLEOI/6z6KH/y2W/F7tXf/KZ7Y4oT39M/xykmO+2/67NN4oFHah7neJ8mOWfdb/4pDl+PfzzdxzR78zd7V8e97z+JnB09hUCHvWsj0/E/X/PPjMHYtqPykW/5YXomIigODfCIiHQu5l2Hqoa/C/HEHbO++Doii8oKCgOkdf4rgbS0oPfSvMHmuZ5Se0sV/02efxnPP7GZgkELTZ5/GvoYhnHrtdbQN5i94nX9cau/+Uzyx96t40pW/4yVtey8OH3gLXQqBcnQeRbERn3tmF/7sGUfC5bWSy/Nf6fyovXtB2U2RVuLjQURExsYgn4hIp0TnIkw/8JdASSmCTVswEwig5Pe/VFx25tNfQLBpCwBg+oG/ROmv/hWC71ZW8tH12x/hUu1W/PmjX8SzjndiWjUHT/4HXjqZlWQKmii6UOsA4OtFlweAhnHV4Mn/wG8cT2Pf5s1oej/3QV5421UShG786kgD/mbvaqxtAroup/6OlpKd/2olOj8WWn6Uvp/seLC8EhEVB47JJyLSIdFei6kHn4ZYWhl+b7Z5OwJ3PxS3bODuhzDbvD3y3dJK6bv22qzlRxj8AIfPDEFo3I2H1iToTUC64RsaAlCDWrfWOTEGnv9ERFRI2JJPRKRDwUWrYfnofQBAYPMemG/0wHRDakEMVTthGvWF/4/ZGVjPHEFoSSOCSxpgPXMkso6RwazlyfP+WXRv3oWGxjXAZSkv8pjr+WPAlcZiJxonHj1OGZgbr33agSfmrTeS1s/h3fJFbHMJMWO71aQpj0nufutfcanxr2PSlZedn59U49vldUruwhNfvwui6MMHr0e6Zcdto3glrit1qu3LFjV5Ubts7LavxgNf/yoeQOr5CNyuGoiiD96h1PlTWle2jnU6lM5/NXlOdn6ccOyNKz/p5Ht++Ut1PBKVV6VtUDovsr1PiYgoNxjkExHpkOXSB+H/BzbvgelGdzh4j2Ya9cE0935gM2KC/OwbgtcHNDQ0oEm8nLAbuFi7FX/e2IOXDkTy0fTZp7Fvz6PYPhQJfEXRhdbHv4itzthxyk2ffRpP7E0cLDi27ILjyi/w0qtzgZ8gqE5T1rj3q8Bb/4qXfiuEx4g37v0qntsrBUQvHfBG8pdgHbLBk/+B//n+3LL4Y1RQHll3A3rxm3+WAiZ5vfueeRS1r8evV2n70iGKLjStdgC+P8Z0DU8nL2qXjdl2p7ox4OKaPeHJ36K3PZym74/46T9H37h5BM86IpPfLexYqzumyuLPfzV5TnZ+IMkwh0zyndHxyOAczd4+JSKiXGB3fSIig7CeOYLyH/1NztYvCF4MKrS8xi03+AFemTdu+dLpP8IHB7ZuWRN+z/2pXdjmEtBzJDYw6Prtj/Cb7sRdop3oxeH3Y3soqE1TJnYfDbc6CkI33j8jbZjoPRtetyB4ceJtaR2NjZkNfVi7bxcaMIQPXo8EW4LgxYmD76AHDmy9fxtq502mqLR96aUp3Tj54O3YHgDp5CWTfCfj2vIInnvmr/HcM3+Nv9m7GmL30bjWeSnNXhyO6rkgXD4inQsNd2F7rZTewo515JgqLZuM0vmvNs+ZyFa+U8nkWOcrb0RElBm25BMRGURwSQNCSxpz2JKfmejHk8mhgtzaLHrP4v0uxE1UJ40pd0KJ70pPyu7rSmlG6+m+HJOoxzsMwJlw3U6HA0B6M6uLYiPWNgDoORvXuikI3bjUswsNDavQ5D6FwaiYXs32RXNteQTPbYlKt/sofvAv3YjevnTy4vFklu9kYmfXl1p+n3tmd7iLdyR/PXEtz76hIQiCEy4HAIX00j3W8PiQ+OxSbyF5ViNX+Y6W6Tmaj7wREVHmGOQTERlEaEkjApv35CzIj8wQPgRf0uXmur8nDVQdcDkB9PgUA1o56FYy5B3E/LsC6tLMwEKCF7cT0u5S7v6Q6H2l7UsmOoCWxlXvxkNrLseOj04nLxnmWy25ldj1zC40bNmG2q5T8MylKTTuxnPP7E76/awda4cTtaKo+oZK3PmfRp6zKs18J5XtY53NvBERUcYY5BMRGYT1zJHctuK7G9CYJDAH5FZaKQCLnnwuMu43+7RIU68uHf4Fah//Irbu2YumLv0+Iz3SSuyAE4Bn7n2x+2iSR9QJ2h7rBOd/qjwTERHlG8fkExEZRHBJAwKb9+Rs/e7GVXBiCB+cTvJg87lASOoy/h+pJ+Gaa/mLW42rJo2MpZlmvsi9ABzKs6tJ7w9j0KP4cUYEwYsTp3shCKuxb1/U+Oh08qJBvuU0E50PYRoe67jzX22e9UyLY01ERDnHIJ+IyCDk7vq5IM+I7jvzTmaBVVNDTPdqqSUXgHMVmuY9yz08O/xCzUsz38LbqDABW7Lx3AtOd27it+hnuqeTl3zkO7yeua7vyc4HVXJ8rJXO/wXnWQe0OkeJiCi3GOQTEenIysY1uHfvAzH/9n38n9hda4l7f/6/3bUW7Pv4P+PeX9mY+YzXoujC9seeDj9bO9mzzwEAnh50+wA0NKBprnVTrN2KP9+zKm7RS4fnZu9+dG9k2blJ2ba50ggq0kgz3xJv49ys7IeT9IpYSLqn/wivKEpj3ufSTScv6SwrCF50XRmCIKzG2qbUeYusJ/YJAOEZ8qPSBKQA+9nPNkp/5PlYpzr/VeU5z9I9Hlqdo0RElDsck09ERGHzZ2oHpK7RL70aO1t7ItGTqj3w9a/iAQCieAWHD7yDtfPGTAtCN351APhc1LKANJHc/zy9GX+zd7WqPKeTZr5J2ziE1se/GLONovcsfnbgVM4mKBMGP8DhM6vwxJa78Gf7fPjBb7vTyku6+fa8/w5Orf4itu39Kp7bGzsZIKDwBAClNAc/wL8f8MWdD9Fj3nN9rNM9/9XkWQupjkc0rc5RIiLKHeGpp54S+70jWueDiIggteSvalTR/JaG3u4uXO0urNa42rv/FH+2GeGJ1YiIiIgouXqXHQC76xMRkc6Ex+T7etHFCb+IiIiI0sLu+kREOjLi86G3uyvr69Qjcc0ePLdlCD87GOkSLI/J3+ocwgevs6swERERUbrYXZ+IiDQjrtkTN/Ze6/HMRERERIVI7q7PlnwiItKMcPkIXiqs6QKIiIiIdI1j8omIiIiIiIgMgkE+ERERERERkUEwyCciIiIiIiIyCAb5RERERERERAbBIJ+IiIiIiIjIIBjkExERERERERmEBQBufHIFgUAgrwnb7XaMjIzkNU0AsFqted/WYkyXx9fY6fL4GjtdHl9jp8vja+x0eXyNnS6Pr7HT5fE1drr5OL71rq0A2JJPREREREREZBgM8omIiIiIiIgMgkE+ERERERERkUEwyCciIiIiIiIyCAb5RERERERERAbBIJ+IiIiIiIjIIBjkExERERERERkEg3wiIiIiIiIig2CQT0RERERERGQQDPKJiIiIiIiIDIJBPhEREREREZFBMMgnIiIiIiIiMggG+UREREREREQGwSCfiIiIiIiIyCAY5BMREREREREZBIN8IiIiIiIiIoNgkE9ERERERERkEAzyiYiIiIiIiAyCQT4RERERERGRQTDIJyIiIiIiIjIIBvlEREREREREBsEgn4iIiIiIiMggGOQTERERERERGQSDfCIiIiIiIiKDYJBPREREREREZBAM8omIiIiIiIgMwgIA5eXlmiRut9s1SZfyg8fX2Hh8jY3H19h4fI2Nx9fYeHyNjcfX2PJ1fC0AMDExgUAgkJcEZXa7Hffcc09e0ySizLW1tcHr9QKQyu/IyEjO03zooYdyngZRLkSXl0SsVmvef3uB3JRfllUi/VFTD6mlVX1VbOnm6/pqvmLbz8VwfC15SSWJK1euwO/3a50NIkqgsrISq1at0ix91hFUSLQuL1piWSXSh2Kuh4hIonmQ7/f7NbljRUSFgXUEUWFgWSUiItIHTrxHREREREREZBAM8omIiIiIiIgMgkE+ERERERERkUEwyCciIiIiIiIyCM0n3suUrV6ApUqAtUYAAASGRcyOiZjuFzXOGRHpgbkCsNoFmG1SHRGcFhEYERHk5N9EusKySkRElF0FF+Tb6gSULRdgq4vthGBzSxcH0wMhTF4TMT3AYJ+o2AgmoHylCWUrBJjLBcVlghMiJj8RMXE1BDGU5wwSEQCWVSIiolwqmCC/stGEikYToHwtEGarM8FWB0AE/N0hjHfzyoCoGFhrBNg3mRIGDDJzuYDKdQLKVggYOR9CYJg3BInyiWWViIgotwpiTL5gAirWpA7wY78kfUcoiC0kooWwLRLg2GZOGTREM5dL37EtSqdiIaKFYFklIiLKPd2HwJWNJtTtybzDQd0eCyobdb+ZRJQhqVXQnNENPcEE2DeZw3N7EFHusKwSERHlh+6761ckCNDHb01h0jODiYFphGZDKKm2osxZAufaSsV1pOq2X7ZMQEWjGTa3gFm/CO97QcyO575rYCi0GNuffhZb3JELF/HSa/iXX57LedqFqOnhF7BnrYCeN57H4c7Yc0Pel5trB3Dm5e/h5MC8z+v24omv7ICj63VN9q/r3r/FY6318J14CQeP38x7+kYkXfgvrMeOvA7v74NJx/0avY5YyPkZan4S39h/e0y5zPX5Lqepdv1KeaT8KYayGk3+rcr377lSuUu3rGhNq31HRGQkug7ybfVCXBf9wY9GMXZtEmVuG2pWlcPdUg0AEEVgcnAGvUf6YSk1Y/lnaiNfEqR1JZp5XxAEOD9lwXS/CM/xWVirBdR/1oKxS0GMtuduTH900Hng3yI/ZK57/xaP33urIH6M8+3ihU7sWXs7HO6lAObvn0Vw1gKCUI+GDUtxciD2c/eGZjgFAT0XzqIAOrGQCuUrE4/rHepWnprb0VgR9565XED5ShP8vcrlnXUE0cIYvaxGC4XuQGPT3B9NLWgKnUWXSfk3p+nhF3B/Uyfe/u5P4pZJ9pmeZDOf6ew7IiJKTNdBfvny+Ip97NokIACL7qyJeV8QgHJ3CUpdJZjyzkAUpfei1zXdH1RMx1QmvQ6dnUXQD8x4RNTcaYa1OnfdAkOhxdi+fwccg+/itZ+fBaJ+xLzHv4+DOUu5wHV0oOfzzVjdtAmuY33wRv/4t7RgNQbg89TBUbsI828CuGrrIIr98Hnym2WZ9/j3ceC4NmkbVenyxGV0qGdc8X2lwEFel79XeV3FUEdk+/zk+U7RjFxW47S0oEEQ0HPpQzSsvR1bdi5Fl8INuVBoMZxO5VUk+yyZfJe7TPOZkMp9R0REyen29qitXkCJO/ZHebjXD2ulBbftrkdwKohbp4fQe6Qfnxz3oPdIP3qP9GPxZgfst1XAc34k5rslbkHqGaDAXC69zn8mr2DO2uYokFqdKV234BsEUNuMNYtiP1m3vhkY7ESPD3MtAJFWm3DrwGAnLt/KZ34pVyyVAiwViS/cV++px+o99bDYzLDYzOG/E66vQoClknUEUbYZv6xGhEKLsb21GaL4IbrfG4BPFOFo2gRXiE/6SYX7jogoe3Tbkm+piv8Bn/IFULmkFIIA9J8fxfTwDFZ8phbmUjN6j/SHlyt1WuH9aEpxnYm67MusNQIEq/R/U0n8jQYAEAPIwqN8pGB1dW0z1iw6DO9A4iWlrnDx48zlrrxo+4Hi2LufenbjG/tvj+Rb/DCuO12my/e88RJ8rdI4YdFzDK/96HC4VV0eTydTGgcojxuUzR8nm+hzk+kmLncNYIu7Hk43gLn9Fm5N8PWj7UInNje54VwU+RyL6uGA9LlXYXuizc9Lsm3Gzm/isdZ69LzxPLrXfy9muxOvJ37csprvy+bvX9FzDK+dqMNjCuONU+3nQpaLljlrtZBy7K4e6whZqrKX7Fz2tHxZccy6mjKiZP75LtdXTkH5uCmNIVab5vzllequZNTUWZQ545fVKIs2oaEWQFcHLt66BefgDmxWKMOxdfPt2PPtF7EH0rn3Fh5L+NnB4zczKscyNWVF7TVHsm2ILj+qy5fKfRdt/m+c0jh+Ncvk8rolWTqZXmcREaWi2yDfalcK8mfgWidNrDc9PIOSaivMpZHb84JZ+o613IxgIP7Or9I6AWkMn8y+yQRbnVSJWmsEuO+N30XTAyEM/k65679a0cHq5q98E1CYKG4hnK3P4eueY3j1O8/DazIhFLoDD37rUdz/rW/CqZBWuss7Wh+Do+sHOPBvN+UNCn9n9eC7ePU70o+R9GP1HL5WG/lRlS8gTv/4eZwcMEl37x/ZB1eH9J1Un3s+6oRvex1Wr78L6Jz7oZ67OLhy4izgqccQmmPH5bvr4sbjh+r24on1HTjwj6+Et6vp4Rdw/+e/ibs96rbZNfdZw/4XgTeex4FfmiITACZYjxI134+eWPD0jyPvNz38Ah7bH39up9qPhU6w5W+deq8j1JY9mdK5rLjeNMtI0u0ZeAsH/+mt+PXPzTkQDvDTTDPduism/TT3G2XG6GU1WvTcLyaTKVyG588T4z3+ffzwmFynzx/PnuyzCLXlWLaQsqIk+TakX77U7jtp3dG/h89Hfiebn8SDzWelG4uqlsnPdUs4HXTiyHek/STnL53rLCIitQqvxoiq5MwlsdmXZ+0N+IMwW9Vv2rQnhL5fBLKSvXR4j38fr57ohyDUY8tfvIiv/eXerHVLm3/X12Q6h1+//C6GUIfN99y14OUd6MRbx/pi3lv3iPQD9nb0ejpfwZFLItC0E3fXhSLd5ruOhX/QTKabOPnLt8I/hMk+BwDc6scQADjrw/vLvaEZDgxI4+1vnUfPIObG5c/lbf1cF8COSH5NA2/h4LyLjIvvpbfN4f136bXwHXuT6Sba3ki8nky/7975GLa4BVx5M/ZioOuXfy/t4yiq9iOppvc6Qk3Zi5bsXI6WbhlJR3jOAXTi7Z+fzTjNdOuuaOnuN9I/rcoqIJ3Ta5rqYn5rPMeOoUcU4di+O2YIWTaoLceyhZSVTKRTvtLdd4l+D02dr4R/S9Usk6/rFimdAZx5OXIjxGS6ibYfvY4rqMPm/fvi6vZ0jy8RUTTdXu0HRuK7z5XYrZjyTgMABJOAycFpiCIw4ZHeCwVEjF2fwMD5Ubhb7KrWqTXv8e/jh995DT2iCMG9E499+0U8fu/iBa93qOt8fDA3F/xGB8fZWj7yI9cR1+LgHRyAIMx1r5fNGzMfJ8nnJtM5dHchZly+q7YuPN7eZLoJX9S4/HBX/sEBeBOnmLI7seI+mnPlwtnYN+QbESql+n74AshzDKc6EMc7mKAvY6r9XMDE6cJY50KlqiPSLntIfi4nk6qMpCNyAZ68W31G5VKuu5Kc/5nsN8pMsZRVtOyWHnUZdU7Jv1eCcDsaW7KbXLrlONOykom0y1ca+y7V76H6ZfJz3aJ0E0CmdD0jy7SeJiICdNxdf3YsPiAvdVgxMTCNqmVlcDZVwntxDB+/LY3Fd62rgq9rHIOdY9KyTquqdeqByXQOh//pXHgclrP1OTyOhY0JHfL0Yf49nEjwWwcXEBPwLnj5uTHvwtov4Zl/+FKSnEnjjBvc0vi9LXHj3lJ9LpEfped0A6Fb8g9oZLz9xQuduF8elw+pK/9QW/yNiQe/9SgaVAYsSvsopbkbJBn/UM993yNPwtbVr7guj8cDIHqiKnX7sZAFRrNfnnOxzmxIWkeoLnsRas/ldMuIWqG6vdi7vS6mB0umaSatu5JNXJjBfqPMFEtZXbe+GYB80zZyTsq/VzFDzLIg3d+kjMtKJtIsX2ntu/DYfeXfQ/XL5Om6ZS6doUHlWX+9gwNAU/z7GV1zEBHN0W2QP90vYsYjxkyU41xTid4j/bj+By+WfdqF6pXlMd+Z/3e0GY+YctI9rZk6X8EPPXNjVLfvRtOx7D4bN91H3WTyaBylCW0iTOHuac65i3hn63N4pjUyyU2qz8M80sy7q9ffBXikH9CYiwPPQHhcfptnbjx+1A+mNBZOSkMU+8MTDEXGzRU21fuxgM2Oi5j1iwln7b4SNRln9N+JZu2e9YspJ/LSmlIdcXHus1RlL125KiORbvoDOPNe7AV9ttJMp+7K9n6jeMVQVqOf796w/0U8s19hoaaduLvubFbn31morD8Cbx415UvrfZe36xYiojzSbZAPABPXQihxxz73xlphQcA/i9Frk6hcUgrT3GR7wVkRgbEASh0lCddVCEwDb+F01w7cr3BXNx0O91LMf058+JFcCt3W010+zlz3coeKlutwq2RUi51j+2O4+yPpgj7V51J659EzuAObnfVYt6EZDnTidAci1+Ty502bsL02ajy+/PncXf7Ij7t+LrqSSrB/3e74fsWq9mOBm7omonKdcuCQ7BFcidZVCOLqiDTKXlpyVEbkbvq+E6/Gn4cZpJlx3ZWr/UaKjF5W3Tt3Ss93TzGrvdIkcvmy4N/5dKRRvtLed2rWna1l5izkuqVtLp3VtYsQv//nhhuiE75bKJhLESLSP11XJ9P9IjDvt3zZp11YtaceM/5Z3DjlQ++RfvS+PQDP+RFMeRNMtiNC9634MqW76onGh8oz0SpRfLZsSwsaBEFxnFe6y8+XbFxZsu8c/qe/D08sNn/7kn0uzzyO2mZsaaqLu0CJdEFsRoMTimPuFM1ts94k27/y2MNk3022nwvZxNUQghMLL9vBCRETVwvjRuD8OiKTsrcgCygj4W76nmPpTSiVJM1M666877ciZ+SyqjRpXJyODmkSOQ2f+662rGRyzTGf2vKVyb5Ts+5sLaP0nXSvW8LpKEzmmWxeACKihdB9jeLvVv4xrF1XhWXbpYB/1f11WHRXDWoaK9Jah5LB3wXR94tA0n/ZeNxOKHQH9v33F7CvOdGMsZGu+p6POqWu6a2R2Vfli+VEBPdOfOmRyGy5obq9eOLzzQkvrtNdXkl4BuyvfDlm8plQ85P42sN3RLZ77v8yV23kBz7V59E8Hs/cj6jyxfzFC52Rz+ePhVOYbEjeZr26+PO5WXij9q/8CJ4t857/nM5+LGRiCBg5H4K4gGvmdNehxzpCTdlLW5bLSEw3/TcSPMYxgzQXUnflZL+RIiOX1ejnuycK1MKTyLl3YluL/J50s1ppUr5kn2VKbVlJ55ojWT5Vla8M913k9/CbsbP0Nz8ZrjNVLZOn65bEv99zs/v/fN7ku0REC6Tr7voAMN4dgv9KCHV7MsvqwJHZBV1U5IrJdA6//u4tbH/6e3gm6hnnotgf8zxXQOqe+9OXgSe+sgOPfXuntJznGF57+V3s/coOxfX7TryE07XPxkwmE+4Cq/BDmu7yits08BZ++t1+PPitR7Hn2y9iz/z1yNt94Ul8IzodzzG89l3pot+E5J/H6OhAz+ebpVYIpQlq5sbtOzCAno9iP48eQyfnVRQ/xNvffR2NOh2TL50ziNu/vhMv4YcnduMb+2+PXVbtfixwgWERI+eDsG8yhx+jqZYUNAQRGNZfT5+064gUZS/99LNbRuSbE4D0OMAt8z6X85pumgupu3Kx3ygxo5bVdffsCD/fPVnbidIkcp5jr+J007PYMjcWPXocd7LPMqG2rKR7zZEon2rKV6b7Tu4e3/TwC9gTVZ9I647Mzp9ymTxdt0Tq82dj0zHo7zIRaU946qmnxHPnziEQyO9zZe12O+655x50dHRgZGQk5fKVjSZUNJoAtb1ERakFfzyNVnwjkMeuqb0YSHd50ifXvX+LL21HeKKybLLb7WhpaUFbWxu8Xm/4PTXldqEeeugh1XWEtUaAfZMJ5nJ1lURwQsTI+ZAugwYqXErlJRGr1Zr3314gN+WXZZVIP9Kph9TSqr4qtnTzdX01X7HtZyMf361btwIogJZ82fhcwG6rE1C2XICtTjmQmR4IYfKaiOkBXgxQcQiPyR98F5eLeOKewLAI7++DKF9pQtkKIWEAEZwQMfmJNK5Xj718iIyOZZWIiCi3CibIl00PSAG8rV6EpUqAtUa6OAgMi5gd0/9j8ogyFWp+El9vHcBrP4p07ZPH5G+uHcCZl9nlTwwB/t4Q/L2AuQKw2gWYbXNP4JgWERgREfRrnEkiYlklIiLKoXCQb7VatcxH2qb7GdBTcTF1voJ/xpP4xrdfjHlfvPQa/uXf8vcYQLmu0HudEfQDQb+IuEd0EOVRqnKiVTnSU/llWSXKrWyV92Krr5gu0y3kdMNBvhbjEij7TJ2v4EBn7pYnbenheMl1BesMotSSlROtxgQCLL9ExSQb5b3Yxk4XW/1cbPu5GI5vcfftJSIiIiIiIjIQBvlEREREREREBsEgn4iIiIiIiMggGOQTERERERERGQSDfCIiIiIiIiKDsKReJLcqKyu1zgIRJaF1GdU6faJ0FPP5WszbTqQnLItEpHmQv2rVKq2zQEQ6xjoi+0QhhMnyUZT7a7TOChmIkctq0BxAoGQKpZNVWmeFFmiqdBTWQBnMQW2ekU1ElA+aBvltbW1aJk9EaRgZGcl7mqwjcsOxvgz22lK0v3sBoVlR6+wYkhblRUtGL6u1d5ajtGL/6oAAACAASURBVNyKvvdHIYosM4VKEAQsu78aUyOz8Jz1a52dnCu2eoiIIjQN8r1er5bJU5Y1No6ipcWHjg4nururtc4OGQDriOwzW01Y0WiHqUSAdWkIN/7o0zpLZABGLqsllRasWuWAYBIQsk/B1zOudZYoQ67GKlirzbBUmtD7/k1MjwW0zhIRUU4U3cR7Vqs23bOKId377ruB5cv9uO++G7Db7XlLN1ox7Gc9pKuVYtvPuUi3vqUGllKz9P+NNTBb438GWH4pFwr1+C650wnBJEj/3+yCIAh5STdTLL/KBEHAkruc0v9NAhbf4chLutmm1fElosJSdEE+5c7Nm+Uxr0SkL2arCfUbI+PwLaVm1LdwXD5RIiWVFtSui/RMK3OUwLG6QsMcUaacDZUodZSE/65dVw1bFW/wEZExaT7xHhnHoUPL4XDMYGioBNXsrU+kO9Gt+OH3Ntagv2MYwUBIo1wR6Vd0K374vc0uDF3xc2x+AYluxQ+/N9ea//F7Axrliogod9iST1kjigJ8PhtEUV1XRiLKn/mt+DK25hMpm9+KL2NrfuGZ34ovY2s+ERkVg3zKmtWrx/DQQ59g9eoxrbNCRPMoteKHP0swNp+omCm14oc/S2NsPmlLqRU//FkWxuYTEekRr+ooa3bt6sOqVWPYtatP66wQUZRErfgytuYTxUrUii9ja37hSNSKL2NrPhEZEYN8ypqxMWvMKxHpQ7JW/PAybM0nCkvWih9ehq35upesFT+8DFvziciAeEVHWVNTMxPzSkTaS9WKL2NrPpEkVSu+jK35+peqFV/G1nwiMhoG+ZQ1ZrMY80pE2lPTih9elq35RKpa8cPLsjVft9S04oeXZWs+ERkMr+Yoa/r7y2JeiUhbalvxZWzNp2KnthVfxtZ8/VLbii9jaz4RGYlF6wyQcbz55krU10+iv78MZYzziTSXTit++Dsba/DxVV+OckSkb+m04oe/s9mFoSt+iCJ7selFOq344e/MteZ//N5AjnJFRJQ/bMmnrFmxYhybN3uwYsW41lkhKnrptuLLLKVm1DTxLh0Vn3Rb8WVszdefdFvxZWzNJyKjYJBPWXPffTewfLkf9913Q+usEBW9TFrxZY515RybT0Unk1b88Hc5Nl83MmnFD3+XY/OJyCB4FUdZc/NmecwrEWkj01b88PdtJo7Np6KSaSu+jK35+pFpK76MrflEZAQck09Zc+jQcjgcMxgaKkF15tdKRLRAC2nFD69jYw36O4YRDISylCsi/VpIK354HRybr7mFtOKH18Gx+URkAAzyKWtEUYDPZ9M6G0RF78Yffbjxx8ST51UtKcO6zy3DxV9dx9iNybjP7XY7RkZGcplFIl35+L2BpEFdqjJD+iCKIjr+42rCz3kciahYMMinrFm9egzNzUPo7HTA67VrnR0iSiA4E8LYjUkEZ9hKT0RERGQ0HJNPWbNrVx9WrRrDrl19WmeFiJKYGJzGxV9dx8TgtNZZISIiIqIsY5BPWTM2Zo15JSIiIiIiovwKd9e3WvMfmGmRJtPNHYcjEPNq9O1luky3UNM1l5hQ5irBpHcmYZd9I20v02W6C03XYrGEX9NZV6Fur1HTzfQ4LjTdbGO6TJfpMt1UwkF+IBDIS4LRtEjTarUy3RwxmUIxr0bf3mJOF+DxLeR0S91laNy3CBd/dR1TN5S77Btpe5luvGLa3mykOztrmXudVb0uHl/9pZvJccxGutmm9/3MdBemmLa32NIF8nd82V2fsqa/vyzmlYiIyAgsNumRlKEgH49HRET6x9n1KWvefHMl6usn0d9fhjLG+UREZBDVy8sRnA5hwsPJKomISP/Ykk9Zs2LFODZv9mDFinGts0JERJQ1n/zBg4tvXocYYks+ERHpH4N8ypr77ruB5cv9uO++G1pnhYiIaMGsZVI3fTEkYsLHVnwiIioMDPIpa27eLI95JSIiKkSWUjPqmu1o+dJtcKyu1Do7REREaeGYfMqaQ4eWw+GYwdBQCaqrtc4NERFRCgJQ5ihBmdOGCrcNZY4SlNfaYC2XLo9Gr0/APzClcSaJiIjSwyCfskYUBfh8Nq2zQUQ5ZLIIqHCXAkLiZYIzIUwMSl2bzSUmlNcmrxe0Xt5isYQfraWH/OR6+bIKK0IVZaqX11v+010++viazALEEDDaNwEAcDVWY/V99QCkmfOnhmYwcm0CE95pTAxOY+zGZNK0iYiI9IhBPmXNpk1erFw5jpMn6zA9bdc6O0SUQGhWhL9/CrNTwcQLRbVwmswCBi+NAgAq6kqx7nPLkq5/7OYkLr55HQBQ7rJxeV0u79BZfvK3/Hj/FEb/rxTkj92YQM87tzDpm8bk0AzAefWMbe74CqYkdymJiAyAQT5lRWVlAJ/5zC0AgNUq4p13FmmcIyJKxD8whY/+77WY96qWlKG81oZylw1VdeWwVrthMksXwlMjM+Egf8Izja7f9CV9XnhwJhT+/4R3Ghd/dT1pfrReXmrpndVNfnK9fEVFBfx+v27yk+vlY46vCCmYnzPjn4Wveyzp+sk4pscCAABbtVXjnBAR5RaDfMqKqSkLRketqK4OwGYLwmIJpf4SEWnObDWhcc9iVC+TJswMTMxiZjiIoU/G4PdMR1o45wQDIYxcm1C9/uBMKK0uz1osb7VaEQgEdJOfXC9vspdgbER5HYWQ/3SXT3Z8qbjM+GchBkWU2hnkE5GxMcinrJidFfDRRw7cffcAamun0Nzch/fe4+x7RHpV5iyBxWbG2M1JzE6HcPX3A/D1jGN2Kgi73Y6RkRGts0hElF0iMDkyw5Z8IjI8BvmUNX5/5HRavHgYAIN8Ir1ausUFm92Kzp9/gp6jN7XODhFRXkyPBGBjSz4RGZxJ6wyQcVy+bMfkpBTo37pVo3FuiCgZk8WEspqSpLPkExEZzfRoAGV21n1EZGxsyaesmZkx4d//vRF2ewAzM/UA2N2XSK9K7VYIJgElFRbMjM+m/gIRkQFMjQQgmFn3EZGxsSWfssLtnsL+/R9j2zYPBgdLtc4OESVhsggoqZTu8VYtLkuxNBGRcUwNSxOJOhuqNM4JEVHuMMinrNi61YMVK/y44w4v3O4prbNDREmUOW0QTAJmxmex+A4nBIH9VomoOIzdmMRQ7ziWbXOhoo6NEkRkTAzyKSuuX68AAIyOWjE8zAltiPRsYnAawemQNDbVWYKa1RVaZ4mIKG963+1HwB9E4+7FMJfwUpiIjIc1G2XEbBaxdOkErNYQAOD8eSf+z/9Zi4MHGzEzY9Y4d0SUjBgSMfTxOMpdNkz6ZrD0Lhdb84moaARnQug+ehPWCjNW7ajXOjtERFnHIJ8ysm/fNXzhC714+OHe8Hvj4xYEAolPKUEQ85E1IlLB1zMOs82E6XGpNd++olzrLBER5Y1/YArX3h+EY1Ul1u9fhvJam9ZZIiLKGs6uTxlxuaYBAA7HDARBhCgmbgWsrg7gi1/shdUawhtvrMStW5zoi0hrI5/40d8+jPqNNRi6Mo7hq36ts0RElFf9HcMIzoSw/O5abPjCCgx0DqPvAy+CMyGts0ZEtCAM8ikjR48uQUvLEC5fticN8AVBxNatHlRUBAAAq1aNMcgn0olP2jwQRRFjNybD761sdaOsuhSzZ6fhH+AkmkRkbIOXRjHUO46lW12oa66Bq6EK104NYviqH7OTQa2zR0SUEQb5BrZrVx/WrBlFW1s9zp93ZnX5vr4K9PWlnqyruXkIGzYMAZAm5bt4sSbld26/fQj/7b/dQk9PFY4eXQYxRS//6OWPH1+V0/XrbXk120uUzLX3B2P+djRWwVpmxoaVywERCEzOYsI7Lc1IfdWPKd+MRjklIsqN4EwIn/zBg8GLo1j5aTdW3SuN05+dDmLSN4NJ3wymhmcwOTQDMST9SFssFszO5v8yuqzCilBF/htLFLdXBKZGZxDw82YIkd4wyC8gZWVBrFkzguvXK+DzJR87VlISxIYNwwCAlhZfyqA93eXVi7Tyv/feYgwNlaT8xu23+2C1hrBu3Qj+8IdFmJhIfppGL3/q1CxmUsQgC1m/3pZXs71/8ide3HnnIC5dqsGJE5xgiJL7r3+/guV3LIKtFiivK0VJuRX25RbYl1dg2bZaiBBx8c3rGL8ptfK71lTDe3lU41wTES3cxOA0LrxxHVVLylDusqG0pgRlzhI4GythselpUmGH1hmIEZoNYWo0gOmRAKZHZzE9MoPJ4ZmYXmJElF8M8gvI3r3XsXz5OKanzXj55bUIBhN3k5+ZMeOjj2qwZs0oOjpSB+xqlrdaQ3jwwU9gt8/gyJHluHkz9Z3kzk4HAgEBwaAJV65UpVweAD780BluqZ6cTH2Kxi8fyPH69bZ88u29804vKitnceedXrS11SUdXkEEAKNXJjFybiT8d0mFBY6GSlQtKkNpTQkmPHN3lkzA6vvqsfxTLnz0/13DzPisRjkmIsqesRuTcQGqpcyMMkekoUJq2c5/nVdRUQG/P/9zqChtr2ASUFpthc1eAlu1BTa7Ffbl5TBZpEmYh3rH0ftuP+c4INIAg/wCYjJJXcSkWepFRLeSK3nnnaX43e9uQyCQPAiMXv6dd5Ym/HzpUj+WL5d+WNavH1IV5IsicOlS6i760T780IEPP1R/lzp6eas1t+vX2/JqtrezswZbt3pw4UINA3zKyIx/Fv3tw+hvH4553wQThj/2o+a2Cmx8/DZ8fHwAg5fYqk9ExjM7GcTYZCTwt1qtqq+vsslkL8HYSP5byBNtr1KNb60ww9VYhWXbatH8xRXoOXqLc7wQ5RmD/AJy5MhSrFs3jE8+qUQwmP+nH968WQ6v14aqqllcvmzPe/qUmVOn6nDqVJ3W2SADCoVCuPzWDdSurcZt99Zh1Y561NxWge4jN7XOGhERaSTgD+LW+WGM3ZxCw+5FWL9/Ga69P4j+juHUXyairGCQX0DGx604c8atWfrT02YcPNioWfpEpE+Dl0Yx2jeBDf/PcjhWVWJ5ay2unRhM/UUiIjIs/8AUOn/xCVbtqMeKVun6lYE+UX7kvzmYiIgMZ2Z8Fu0/uwoxKKJ+Qw1MJv68EBEVu+BMCN1HbmKodxzLP1WLirpSrbNEVBTCLflWNYN7s0yLNJmuftIVBBGrVo1ibMwKj6c8b+nmCtNlukwX8FwcQ11zNZa3unHjpC9v6S4U02W6TJfpMt3cpXv9Dz5U1JaicfdiXHrjRlqT8RXi9jJdpqt1uuEgX4vJQ7RIU6uJUootXSD18d22zYNt2wYgigJ+9rMGDA0lfyygGsW2n/V8fHOh2PZzIR7fayc8cDVWAkIo7XUU234uxOO7EMW2n3l8mW6uFOL2BgJA99GbWL9/GZZ92ql67hYe3/wotv1cDMeXY/JJMzZbEIDUom+z8fEqREYQCoXwx/+3R+tsEBGRzvgHpnD9lBfLP1WLqiVlcY8pJKLsYZCvI4IgYseOW7Dbp/G73y2Gz7fwlm09O3nSjZkZE4aGSnDrVurH8VH2LV3qx+7dN+Dz2fCb3yxHMMhH7BEREVFu+HrGsPxTtSitKWGQT5RDnBlJR5YsmcDtt/uwfLkfmzcbf2bqmRkzTp6sw6VLNVpnpWi1tAyhunoGt902hkWL+GNL2bPqM/VYusWpdTaIiEhHZvyzEIMiSu3ajIcmKhYM8nXE57PB77dAFIFPPqnQOjtUBLq67AgGTfB4SjEwwBlvKXucTVVwr7drnQ0iItITEZgcmYGtmkE+US6xu76OTE5a8Mora2C1hjAxob9DU1ISwswM7wsZyZUrVfhf/2u91tkgAwpOB2G2mbXOBhER6cz0SAA2tuQT5ZT+IskiFwiYEAjoL5Devn0Amzd7cPVqJd58c6XW2SEinZvxz6Ki3CL1F+O8mkRENGd6NICaFRWAAEDUOjdExqS/aJJ0qbFxFACwcuU4rFZesRNRcpPD0iNiKtwcBkJERBFTIwEIZgElFWxrJMoVBvmkysmTbgwP23DqVJ0uexoQkb5M+WYAAJUM8omIKMr0qHQT2FbFLvtEucJbaKRKV5cdXV2cRIuI1AkF53r88J4gERFFEUNzffT51F6inOHlFxEREREREZFBMMgnTVVUBLBhwzAqKgJaZ4WIiIiIiKjgsbs+aWr//qtwuabh9dpw8GCj1tkhoiyZGJjG2I1JTAxMa50VIiIioqLCIJ80Jc/Uzxn7iYxl7NYkLv7qutbZICIiIio6DPJ1pKXFh40bh9De7kBHh1Pr7OTFoUMr0Ng4hu7uKq2zUrS2bx/Apk1enD/vQltbndbZISIiIiKiBeCYfB1pbe2HyzWF1tZ+rbOSN15vKU6dcsPr5WO2tLJxoxdWawgbN3q1zgoZSNWiMqz73DJULSrTOitERERERYVBvo709lbHvBLlQ3u7C4GACe3tLq2zQgZSXmdD1ZIylNfZtM4KERERUVFhd30dOXJkKd57bxEmJ81aZ0WRzRbE9LQ+80aZa2urYzd9IiIiIiKDYJCvM3oN8Hfv7sP69cO4cKEGR48u1To7REREREREpIDd9UmVhobRmFciIiIiIiLSHwb5pEpbWz18Phva2uq1zgoRERERERElwO76pEp7uxPt7cXxWD8iIiIiIqJCxZZ8IiIiIiIiIoNgkE+aqqgIYMOGYVRUBLTOChERERERUcFjd33S1P79V+FyTcPrteHgwUats0NEWTIxMI2xG5OYGJjWOitERERERYVBPmnKag3FvGbTQw89lPV1ElEaRGDNFq0zUTja2trg9XrzmibrSSLKlBZ1FhGpwyBfR1pafNi4cQjt7Q50dBTHJHeHDq1AY+MYururcrL+K1euwO/352TdRETZUFlZiVWrVmmWPutJIkqH1nUWEaXGIF9HWlv7UVISQmtrf9EE+V5vKbze0pyt3+/3Y2RkJGfrJyIqdKwniYiIjIUT7+lIb291zCsRERERERFROiwAUF5erknidrtdk3T16uRJO86dC2B62go97pqSklnMzKjv/MHjS0SUvnzUnayfiShb0q1PyiqsAICKigqY7CW5yFJBY/1sbPk6vhYAmJiYQCCQ30eY2e12TboHWq3WvG+rEdLdvbsP69cP48KFGhw9ujTl8sV2fImIsiXXdadW9TMRGVO69UmoogyAA36/H2Mjk0mXLfTr53QV2/VzsaWbz+PL7vqkSkPDaMwrERERERER6Q8n3iNV2trqsXGjD+3txTEhIByLIJRXAhVz8yP4RyFOjANDt7TNFxGRTpgrAKtdgNkmAACC0yICIyKCnKifiIhIUwzySZX2dmdRBPiCezmEFesAd/yQBAEAPH0QP7kI0XMt73kjItKaYALKV5pQtkKAuVxQXCY4IWLyExETV0MQQ3nOIBERETHIJ5KZ93wZovI1a4R7KQT3UphEIHjkJ3nJFxGRHlhrBNg3mRIG9zJzuYDKdQLKVggYOR9CYFjMUw6JiIgI4Jh80lhFRQAbNgyjokL7yfJSBvgZLktEVOhsiwQ4tplTBvjRzOXSd2yLWGESERHlE4N80tT+/Vexa1cf9u+/qkn6Detvx9333p/x9+++9340rL89izkiItIXqQXfDCGDKwbBBNg3mWGtYaBPRESUL+yuT5qyWkMxr/m29vY/gc8zsOB19Fz4MOkyZcsEVDSaYXMLmPWL8L4XxOx4fruwNj38AvasFSBeeg3/8stzeUvXde/f4rHWevhOvISDx28CAELNT+Ib+2+PeU/PtNp3hSIUWoztTz+LLe5IIMd9ZQxSkG7KKMCfvw7v74NJx+hrUU/KddF8oucYXvvRYXhN+mgLCdXtxRNf2QGnIKiqN+XtEsV+nHn5ezg5oI/tkMn563njeRzuzH/eovfnfNHHXut8EhFlikG+jrS0+LBx4xDa2x3o6DD+JHcAcOjQCjQ2jqG7uyrvadctXgZB4QdeFhgZwtTHHwGBACxONyyuJbDaHXHLCYKAusXLMHDzuuJ6BEGA81MWTPeL8ByfhbVaQP1nLRi7FMRoe35uboRCd6Cxae6PphY0hc6iK8HFa9PDL+D+pk68/d2fxC2T7DM9yWY+09l3xUi+WHZ0vY4D/xYJ6l33/i0ev/dWQdzEWYhCKROZKl+ZeAz+ULfyNPqOxoq498zlAspXmuDvVa7ztK4nY25Chu7Ag996FF/6Vp3ujqvP0w9H0ya4jvUlvQGxbn3zgtPS87mdrbwlvGGis+3NNj0fWyLKDpZsHWlt7YfLNYXW1n6ts5I3Xm8pTp1yw+stzXvaK8ORW7yxP57A+MmjmL3Vh1nvAKYud2L85FGIM9Npr8tUJr0OnZ3FjEeEv2eu90J1HruvtrSgQRDQc+lDCMLt2LIz/ukBgNQi60xwfynZZ8l4j38fB/7x7/IW7GWaz4RU7rtiFAotxvb9O+AYfBev/fxszGfe4983fICf9XNNh0qXJ66nhnrGFf9lsi5d1JNyXkzn8Os3OyEIt6OxJe/JJ+fzYKh2B7YlyVeobi+2NA2g51Lm1xJ6Prf1nLdCwP1HVBwY5OtIb291zCvlzqKly1G3WDlYGzvzO8yOelC55TNw7Hkk/K/y7t0QSmyK36lbvBSLli5X/MxcLr3Of3a0YM44+2kJhRZje2szRPFDdL83AJ8oSi1BIT7bKhXuu1QWwVmrdR4oVyyVAiwViYPs1XvqsXpPPSw2Myw2c/jvhOurEGCpVF6f1vVkwRg8itNdwOrWfQnroXX37ICj6xhODeY5b0REpBvsrq8jR44sxXvvLcLkpD6vamy2IKan9Zm3dFXVxHe7B4DA0CBmvf2o2nYfLDWumM+UuurPX+etvmtJl7HWCBCs0v9NJQJK3ArjAQPI7iOnFm1CQy2Arg5cvHULzsEd2FzbjDWLDsMbNR2BPHZecjv2fPtF7IHUnfEtPJbws4PHb0aNW3wJvlZpbLY8rtHT8uWkYxrnj4kVxQ/juhBKXQsH4saWyl3F0fYDHDx+M+k2RLcqy2PsZQm7bKrcd9Fi86A8Nl3NMmryOH898/dxqs+V0lHa/4mO76v/+7/gGwRWp9gncjpqjmF0er4TL+Gnnt0pz490l8/Gtv/2UjP2fTr1uVbIctGKbq0WUo6z16SenMftdkMU++HzxH+mpmwqjfVPVD573nge3eu/F7POZGPAL17oxP2fVy5zUis+cOXNs4B7Z8LtS7YNaupRNduXLK2fKuxXNevNdt4WItV5oOb4zl9HOvsw3bSil5MYs94iIgmDfJ3Ra4C/e3cf1q8fxoULNTh6tPC7K9c4XYrvT/VeAIC4AH8h64we92/fZIKtTvqxtdYIcN8bXwSnB0IY/F0w7fQTcW9ohlMQ0HPhLEwmEy53DWCLux4NG5bi5EDkR917/Pv44TFpArXNtfPH6iX7LMLR+hgcXT/AgX+bW2+KsX7O1ufwdc8xvPqd56VJjubGwt7/rW/CmcFkUcm3ITLWdvXgu3j1O9ETKz2Hr9XGB9pq9520bjndAZz+8fPhvIean8SDzWdxuNOkchl1eZSDZnk9odBibH9kH1wd0ndSfR5OB5048h1pP8n5S7T/446vGeF9svkr3wSyPMFXuueH2uWzsu14Cz98N3WZKGSCcselnKxT63oyWqj5yfBkoTE3pFSWzVDdXjyxvgMH/vGV8HebHn4B93/+m7jbE39uNex/EXjjeRz4ZVQdkWBZAEDHUZxpfRab77kLJxXqLAc6cboDgEKMr2YbUtajKrcvtr6LvN/08At4oin+jqCa9WYrbwuR7u9I7PGVvtuw/0U8s18Krg/88mbC476wtOLXmWr/EZFxsGSTKg0NozGvpN60J4S+XwQ0STsUWow1TXVSd/MO6T3PsWPoEUU4tu9GU5a7nTvQibeO9alefv4M1ibTOfz65XcxhDpsvueurOYNANY9IgV2b0en2fkKjlwSgaaduLsusj/S3XfunY9hi1vAlTdjLyRNna+EW1HULKMmj+HJALuOhddjMt3EyV++FQ5uk30eSWcAZ16OXOSZTDfR9qPXcQV12Lw/vjuw0vH1Hv8+Xj3RD0Gox5a/eBFf+8u9WRvOkO75oXb5bG07ZY+W9SQg3SB65h/+B575h/8hzUp/6bW4lk219Ydp4C0cnBd8XXwvyXl76bVw+TeZbqLtjeR1oMl0E5e7BhTqrDuwbXsdhtqOJgzc0qkDE1G7fYnqu65f/j1O++oyXm828iaLPu7yv33NyfdBuvsw9view6k26QaH6DkWrlOij3vDhqVZSiv1uURExsUgn1Rpa6uHz2dDW1vi8ZaFZNjnVXy/dNU6AEDAl/6ERYnWqamW3dJjzbo6ooKZc+juQk4mlRrqOp/WI6cUl791Hj2DmJvJPns3ISKBb0fcBbB3cACCUA+nO+rNNPZd+IaA5xhOdSRKX80yaeYx1T5K8LnSTQCZvI2obcaaRbHfS3R8vce/jx9+5zX0iCIE90489u0X8fi9ixPnS6Wk54ezPi4QV7N8trfdyETleUZ1t85s8J14CQf+8e9w4B//Dj/8zks443w0JuBLu2xGSfa4NgC4ciF20krc6sdQivx6PuqMCwjdO3diNQbQ85HyzaiFbEMyStuXqr67eKEzo/VmI2/Roo+7/C9Zt/5M9uH84+vxSGMVEtUpjtpFWUtLzblERMbE7vqkSnu7E+3txpmOdWxY+WfP6nDD4nJj/FwbyjfcBdviFeHPZm5dg9nugrmsPK11akl+jJL0wx+5SLh4oRN71t6O1evvAjqz9yzzIU8f0rl3qLS8yXQTPh+AbE/otqgeDgDC2i/hmX/4UsrF09p34bH7/YkDQVXLqM3jLfgGgQa3NKZyS9x4yhSfz6UzNHhLce3ewQFA4YERyY6vyXQOh//pXHg8rLP1OTyOhY3zTHp+NNXBBcCb5vKeHGy7UQVGsz/mPRfrzDa5V4fzW49KE9x1HA6fN2rqj3CX7AUEpwDCN6aU6gvTwFs43bUD92/f631CkQAAIABJREFUjaZjP8FF3IVt2+uArtcTd0lPsw5MRN32zU3Kmay+y2i9uV9HUlnah4rmAvLw7D/ZTCvJuURExsQgn4rSrb5rGLjZpzjDftXmHRg78y4m2k9iov1k+H3RJMB53xcU1zdwsy/lpHv5Fv18d3n8X5ymnbi77mxWx1EvVK4f76M0yV1EZByklvsuVR6jg5AGQZC6nLZGJk9K9XkumTpfwQ89UuuZYy4AyeaYz3TPDz4uKnOz4yJm/WLCGfavHOlX/DvRDPuzfjHlpHt6IfXqeBSr5ZtDc++nKpvSOGip3Ilif3iiycg8ENkj33DcsnMpLnrmHvU576akEjV1YCK52r5srDef+34h+1DPaRGRcTDIJ01VVASwcqUfV69WwO+35jXtq91dCR+jV7V5BwJDHkz1XoQIETbXYpQsWppwIrmr3V25zGpG3Dt3Shd9KWa1V5pELl8c7qUA5qc91wI0OICsDoCQW0lUtGikve/UrDtby8wJt5xHtVw5tj+Guz+SLmyTfd42l87q2kWI3/+Aq7YOQCd8t5DRNWS4lVGhRTwd6Z4fqpbP8bYbzdQ1EZXrlIP8ZI/LS7SugqW2bM712IkEZjk8iTqO4nRrMzY3bcL22ubI/CGJkkyjfkko3e1LkJbbPa+feTb2Wz72fTb2oR7TIiLDYY1Bmtq//yp27erD/v1X8572wM3rEMXEF51WhxtVd/43VN95D2wr10CwKXfTF0URAzev5yqbGVGaNC5OR4c0iZyGz31XTLtFapGKHq+YaPyhPPu9GsnGW0fLZN+pWXe2llH6zuF/+vvw5Hfz95HS5+F0FCZuSjYOVC2l1vNMjqHa8yOd5XO97UYzcTWE4MTCg/PghIiJq9rUM5kInwtzN4cyKZsx5s7DbJIn4BPcO7FlrZB0wj1p+QVuQzLzti9ZWnIdm8l6s5G3hcjpPtQwLSIyHl7FkKas1lDMa75d+vC/8rqOwd8F0feLQNJ/WXksVNTz3RNd9IUnkXPvxLYW+b25i0aFSfmSfZYpwb0TX3okMutvqG4vnvh8c8ysw4A0yZRPFKXxsXNBXKhuL/ZuV5ihOUk+w7Msf+XLMRPShZqfxNcevkP6I8N9d/HnczOzf+WbsTNeNz8ZnrxL1TIq8hgK3YF9cn7nuGojNyZSfR6bl0g6cnfX1ejE2z+fN4GTglDoDuz77y/EzUYdmVU70lU/nWMoU3t+pLt8NrYdyE2Z0BsxBIycD0FcQBWd7jryVk8mEDkXBnDmjcis5qrqD4WJQ+XzMBfkciWK/Qkn3IumahuQ5NxOY/sSl7Nn0YB5j9BLY73ZyNtCqN2Hek2rGOotImJ3fV1pafFh48YhtLc70NFRHINIDx1agcbGMXR3V2mSfs+FD9Fz4cOMv3/y+NtZzE32rLtnR/j57snu5SlNIuc59ipONz2LLVHP8ZXHcSf7LBO+Ey/hdO2zMZMKhbtaRgXYpoG38NOXgSe+sgOPfVt6+LPoOYbXXn4Xe7+yI269ifJpGngLP/1uPx781qPY8+0XsWd+mgvYd3L3+KaHX8Cev3gRW2LWHZmdP+UyKvJoMp3Dry88iW9E7zfPMbz2XSkgMSH55+F1fPcWtj/9bGw685ZLJrKO7+GZ/ZGWMlHsx+kfPx/7mMA0jyGg/vxId/lsbLss22VCjwLDIkbOB2HfZIaQZtOAFOAHERjWd1d9ed4KmdK5oK5sRubDkJcRxQ/x9ndfR2OWx4XLeTrdtQP3I/5pEYmWT7UNskTnttrtk8oZ4tLqeeN5/BRfxjf210ctm95+W2jeZPOPO8LfSTyXSDr7cKFylVYx1FtExU546qmnxHPnziEQyO/zae12O0ZGRvKaJgBYrda8b6vadJ9++gJKSkKYmTHhRz9an7d0c0EPx/ehhx5CR0eH6nyY93wZosoefYIIBI/8JNNsElES8pwHai88011eb+x2O1paWtDW1gavN/eP4oyun9OpJ601AuybTDCXq6sogxMiRs6HdB/gE1F6FlpnVS0pw7rPLcPFX13H2I3JpMvq+bo9F/Rw/cx0cycfx3fr1q0A2JKvK7291Vi7dhi9vdVaZ6UoBY/8BIJ7OYQV6wC38oR88PRB/OQiQh59zaRPRJRrgWER3t8HUb7ShLIVQsJgPzghYvITaQz+Qrr5ExERUWYY5OvIkSNL8d57izA5adY6K4pstiCmp/WZt2wRPdcgeq4BjkUQyiuBirkbLv5RiBPjwJDys7WJiIqBGAL8vSH4ewFzBWC1CzDbpGA/OC0iMCIi6Nc4k0REREWOQb7O6DXA3727D+vXD+PChRocPZqgldtIhm5BHNI6E0RE+hX0A0G/CIDd8YmIiPSEQT6p0tAwGn4tiiCfiDRj6nwFBzpztzwRERGRkfEReqRKW1s9fD4b2trqUy9MREREREREmmBLPqnS3u5Ee3txPNaPiIiIiIioULEln4iIiIiIiMggwi35Vqs174lrkSbT1Ve6FRUBLF8+hmvXquD3ZyefWm0vEVE25KMOYz1JRNmSbn1isVjCr2q+q+frWKbLdPWabjjIDwQCeUkwmhZpWq1WppsnatJ94IFuuFzT8HptOHiwccFparm9RETZkI86jPUkEWVLuvXJ7Kxl7nU25Xd5/Zwfxbafi+H4ckw+acpqDcW8ZltlZWVO1ktElC1a11Nap09EhYV1BpH+McjXkZYWHzZuHEJ7uwMdHcUxyd2hQyvQ2DiG7u6qnKx/1apVOVkvFa9ZSxUss2NaZ4Moa1hPRgTNAZiDHMpASkSEzCGYgmatM0JElBKDfB1pbe1HSUkIra39RRPke72l8HpLc7Lutra2nKyXipeppBK1D/wAnkNfgzg7pXV2yGBGRkbynibryQhrlRl12yrQ95+jgKh1bkhvqm6zweawYPCcX+us6IYWdRYRqcMgX0d6e6uxdu0wenurtc6KIXi9Xq2zQAZTv/1hWKqXAcvuhffsQa2zQ7RgrCcjVm9aBJvDglDVNIZ6x7XODumIIABL99wGa7kZV94fRsAf1DpLRERJ8RF6OnLkyFL8+MfrcOTIUq2zoshm449aIkafoXM+u92uSbpa7mezrQq1d34JAODe8iQES256oMxPVwvFeHyLKV2t6Hk/l9aUwLVGGja2dLMLEPKTbi6w/Gafq6katmorTBYTFv+JM2/pKim240tEmWGQrzOTk/oc67V7dx/+6q8uYvfuPq2zQqSJ2rseg6mkAgBgKXfCtekLGueIiLJlyZ3OcGBf5iqB4zZOLEYSQQCW3BUZQuleXw1rhT6v1YiIZAzySZWGhtGYV6JiEt2KL8tXaz4R5VZ0K74sW635VPjkVnxZdGs+EZFeMcgnVdra6uHz2dDWVq91VojyznnHo+FWfBlb84mMIboVX8bWfALiW/FlbM0nIr1jkE+qtLc78bOfNaK9nXevqbiYbVVwbHpE8TO25hMVNqVWfBlb82l+K77MZDGhfmONBjkiIlKHQT4RURLRY/HnY2s+UWFTasWXsTW/uCVqxZe51layNZ+IdItBPmmqoiKADRuGUVER0DorRHGUxuLPx9Z8osKUrBVfxtb84pWoFV8mmAWOzSci3WKQT5rav/8qdu3qw/79V7XOClGcZK34MrbmExWmZK34MrbmF6dUrfgyjs0nIr1ikE+aslpDMa9EeqGmFV/G1nyiwqKmFV/G1vzik6oVX8aZ9olIrxjk60hLiw+PP96Dlhaf1lnJm0OHVuDUqTocOrRC66wQxVDTii9jaz5RYVHTii9ja35xUduKL2NrPhHpEYN8HWlt7YfLNYXW1n6ts5I3Xm8pTp1yw+tlKyjpRzqt+DK25hMVhnRa8WVszS8ealvxZWzNJyI9YpCvI7291TGvRKSNdFrxZWzNJyoM6bTiy9iaXxzSbcWXsTWfiPSGQb6OHDmyFD/+8TocObJU66wostmCWmeBKOcyacWXsTWfSN8yacWXsTXf+NJtxZexNZ+I9IZBvs5MTurzTvDu3X34q7+6iN27+7TOClFOZdKKL2NrPpG+ZdKKL2NrvrFl2oovY2s+EekJg3xSpaFhNOaVyIgW0oovY2s+kT4tpBVfxtZ848q0FV/G1nwi0hOL1hmgwtDWVo+NG31ob+cPGBlXiX0JBs++Gve+yWRCKBSCtXoxHM0PYqjz1wiM3ky8nurFmPb15jKrRJQma7kZN84u/Ok11jILAhOzWcgR6YkgADfOJD4/SqosqF1bjcFLo/8/e/caHMd93vn+13PB4H6/CqQkEhRIigIYXWjLRCxLdChqtVasOqv10aWsss/xrv3CWttnnaT22H5lO3uUOOuklKrjsr0VVxJLjqNNlI2PIohZSqYtWI7E0AJI8SKREC8giNvgRmAGmEufF4MZ3GYGM8DMdM/M91OlgjjT08/T3dPd8/S////W4mwwdl5YKRwKRy4CmVlOFgA2QJGPlPT311Pgo+D5Rs/JN3pu3etut1uBQEAV2+6OFflzV09YkCGAzZq95tPsNV/C96tuKtOe392ms//zatLpUJjGzia/U7HqprJYkT97zRc7LwCAHXG7PgAAAAAABYIiH5aqqAjo9tunVFHB1XAAAAAA2Cpu14elHn30khoaFjQx4dGPf7zL6nQAAAAAIK/Rkg9Lud3hVX8BAAAAAJtHS76NdHV51d09qf7+Og0MFMcgd//4jzdr165Zvf/+1h5rBAAAAACgyLeVnp4RlZSE1dMzUjRF/sREqSYmeKY4AAAAAGQCt+vbyOBg9aq/AAAAQCExHEbkf0xr8wAKWawl3+125zy4FTHtHPfYsVvV1xeU3+9SJlPM1PJ6PCEtLDhzHjddxCVutuK6XJFDpsvlylkexbieiUtcK+JmY/+28/ISNz3xvh+FvLzZjFvRELmDMzhnpjTPfF9e4hLXirixIj8QyP0jzKyI6Xa7bR03Mknm8svU8h4+PKS9e6d05kytjh5tT+kzdl7PxN26YlreaNxgMChJCgaDOcmD7UvcbCmm5U017uTlgN763mzO42aDnddzvsYNBl1LfyPHf7bv5nlqXAr6Q/LN+HMaNx1sX+JmS67icrs+UtLRMbPqL1CMzHCkyHe4PRZnAgDIJYcr8pPZ5GFAW1ZaVyLf5KLVaQAFjSIfKenra5HX61FfX4vVqQCWWZi4IJlhlbXcbnUqADLMXeZc7isMrFFWXyKZkm9ywepU8l5ZXYn8FPlAVjG6PlLS31+v/v7iGPEfSCS0cEP+iUGVt3VZnQqADLvlt5tV1ujRwAsfWJ0KbKiyqVQLswGFFmjK3wp3uUuuUict+UCW0ZIPAGmYv9av8rY7JIMWP6CQlDd55BunlRbxlTd5ND/G92OraraXS5Lm2deArKLIhy20tvr0+OMX9Du/c02GwTNVYF/zwwNyllbLU3eL1akAyBCnxyFPlVs3xjYeCAzFh+9HZjhLHNp2b6NuXPdp9rrP6nSAgkaRD1u4665xNTf7dfvtk2pt5SQK+5ofHpAkbtkHCkjT7mrJkOZGOf9gvdrtFXw/MqD9QIPcpU5d+uWYRHsOkFUU+bCFwcEqmaahqakSTUwwcjnsa2HykkL+GYp8oEBUNJdq272Nmhy8odlrtC5iNcMw1HZXvXzeRd0YpsjfrPJGj1ruqNXIqSlu1QdygIH3bKSry6vu7kn199dpYKC4Brk7c6ZWFy9WaXHRKZOru7Az09T88CmV39RtdSYAtshZ4tCuw20KzIU0+NqI1enAhmp3VqisvkTvHx2WyQ+UzTGkW367SQF/SENvTVidDVAUaMm3kZ6eETU0+NXTU5w/NBYWKPCRH+aHB1TasENOT6XVqQDYLEPa8UCL3BVOvX90WKFFRk3HaoZhqP3uBvm8i5q6OGd1OnnJWeLQrgfbVNlapqtvjrOfATlCkW8jg4PVq/4CsKf54QHJcOjmR/4fuatarU4HwCZVNJXqyq/G6WuN1QyprqNS+/79zSqrL9HQiQla8TehorlU+/79zaq9pUKX3xjT+LkZq1MCiga369tIb2+7jh9vlc/ntDqVuDyekBYWrM3t5pvn1Nzs06lTdfL77bmeUPhuXPq1rv3zf1XLR5/RbU+/oJFfPCfv6X+UGQpYnRqAOFxlTlW1lalpT7WuvzOlmaF5yZTO/eOQ/NM8rxsRrjKnaraVq+3OepXVl8jnXdT7R4c1efGG1anlFXeFUw27qrTtw41anAvqzEtXuZAG5BhFvs3YtcA/fHhIe/dO6cyZWh092m5JDpWVAX3yk5dkGKYaGvzq7d2WdHqn09Tv/u4lNTf79eqr7RocrMra9MeO3aL33ivL6PxhbxP9f6eZwT5tO/J13fQ7/0UtH31GM++/ppkLP1fIv/IHoam5oZOiLwoqW0plOA0F5kPyT0UKS3e5S6W17qSfy/T0ZRVuhSvKUp4+2/lkevqy+hKV1ZWotLYk8v/1JXJ5IufWwFxIztLlmxgp8ItDdN8rqyuR4TQkRW7FL6lyqaTSLU+VS55qt5zuyHdjYTaooRMTkYEYTamqbf353eVyKRjM/c/otftvrsRbXsNhqLTaLU9NiTzVLnlq3CqtdsvhiqzHycEbGnxthFv0AQtQ5CMlHR0zsb9WFfnhsKFQSHK5pFDI2HD6pia/tm+P9KG7/fapDYvqrUy/e/eE3nsv+UWHdOcP+wvMXtfgi19U1Y6Dqun8HVXvekA1nb8jh3v1D7Chf/5Defv/3qIsYTVniUM7HmhR3Y7IGA6j707r0vFRSVLtrRW69b7mpJ/PzvR1WZ6/9dMHF0JLfannNe/1a358IfJsbq63FY21+16qPFUutd/dIN2dpcS2rG7jSXIoHAzLPxPQwnRAM1d8WphelG9qkadVABaiyEdK+vpa1N3tVX+/daP+z8+79OKLO9TU5Nf58zUbTj82VqorVyrU3OzXu+/WZnX6c+caMj5/5I/ZwT7NDvbJ+Of/Kk/dzXKWLm/f5nv/D7V+9D/pxgdvanFm2MIsYYWK5lJ1HG5VSYUr0vd7zK/AfCj2/tQHczo7dTXpPDI9fUVFhebm5lKePtv5ZGN63+Sigr7I6263W4EAXWmKTUVzqXY92KaSCpdMUwovhjV2dlqLc0FJkmmaWrwRUmghtMGc4ou0bAczmXJK1u6/uRJ3eU3JP7OowNzm1iGA7KHIR0r6++stLfCjRkfLNDqa2m1qoZChv//7W1Oe91amd7vdkpL/iEx3/sg/Zigg//iFVa8NvXpNuz79vNof/JoG/8cz3LZfRFq6arX9I8n7pAbmgwrMp14oZGJ6R02JZqfjt7BZkY+V06MwtXTVavvBRhkyZBrS6KkpDf3LREZvG7fq4lGy/TebuFgG5BdG1weALFqcGdb1X/65Km/+sCra77Q6HeRI4+5q3dzTpKlLczr9t5cZdArIkdpbK3RzT5MMw9DcqF/vvnhZl385Rr9wAEWFIh8Asmzm/dclSWVNt1mcCXLCkNoPNOjGdZ/ef5XnrwO51LKvRjKlGyM+vfvSFc2PL1idEgDkHLfrA0CWBecmFPRNy9Ow0+pUkAumdO4fr0qGwSBvQA6VVLpUva1CknTpF2PsfwCKFkU+YCMlJWE98MA1ORzSa6+1ye+35yMVkb6FiYvy1O+wOg3kiH+avqtArt10V71kSGNnp2nBB1DUuF3fRrq6vHrqqQvq6vJanQossmfPlHbvntZtt03r9tsnrU4HGbTgHaQlv9AZUuv+Ojk9nFqBnHNIjbtrZIZNXekbtzobALAUv0RspKdnRA0NfvX0jFidCixy/XqZgkFDoZChkZFyq9NBBi1MXJSrrEauio0ft4j8VNVWpu0faVR9ms/kBrB1LftqZTil0TPTjIMBoOhxu76NDA5Wa/fuKQ0OVludCiwyOlqmv/iLThmGND/P7llI/BMXJUmlDTt1Y27C4myQDaW1JZKk6avzFmcCFJ/y5lJJ0sT5WYszAQDrUUXYSG9vu44fb5XPZ89+2B5PSAsL9sytkPh87JaFaFWRf/kti7NBNpTWuGWGTC3O8Zx2INfKat2SpLkxHlcJAFQTNmPXAv/w4SHt3TulM2dqdfRou9XpAHmHEfYLn6faLd/0IiN6AxYoqXApHDIl7tQHAPrkIzUdHTOr/gJIHyPsFzZPjVsLjKoPWMLpcSq0ELI6DQCwBYp8pKSvr0Ver0d9fS1WpwLkLUbYL2CGVFZTooUZinwg5xySw2nQVQYAlnC7PlLS31+v/v56q9MA8trCxEW5uv83uSoaFGTwvYJSUuGS4TTkpyUfyLmKpsige74p9j8AkGjJB4Cc8XsvSZI8tdstzgSZ5qmKDPpFSz6Qe5VLRb7fu2hxJgBgD7GWfLfbnfPgVsQkLnGJS1yr4jqNyIhsLrcn5fnl8/IWU9ywX7r+r1MKzZlpzStfl5e4xLVTXKc7MmixISOnORTbeiYucYmbP3FjRX4gkPvWBytiut1u4uZIMS1vscWV2L6bEQwGY39TmR/bN3/iBiYDmvsXX87jbla+rmfipqaYltftdisUigy4FwqFcpYD25e42VJMy1tscaXcbV/65AM2dPDgqPbvn9A77zSor6/Z6nQAAAAA5An65NtIV5dXTz11QV1dXqtTgcW6uyfkdofV3c3gbEA+8FS51X5PQ6xvPgAAgFUo8m2kp2dEDQ1+9fSMWJ0KLNbf36BAwKH+/garUwGQgpIql266p14lVdwgBwAArMWvERsZHKzW7t1TGhystjoVWKyvr5nb9AEAAACkjSLfRnp723X8eKt8PqfVqcTl8YS0sGDP3AAAAAAAFPm2Y9cC//DhIe3dO6UzZ2p19Gi71ekAAAAAAOKgTz5S0tExs+ovAAAAAMB+KPKRkr6+Fnm9HvX1tVidCgAAAAAgAW7XR0r6++vV319vdRoAAAAAgCRoyQcAAAAAoEBQ5AMAsEWLs0Fde9urxdmg1akAAIAix+36AABs0cJsQENvT1idBgAAAEU+YEcHD45q//4JvfNOg/r6mq1OBwAAAECe4HZ9G+nq8uqppy6oq8trdSqwWHf3hNzusLq7aRkE8oGnyq32exrkqXJbnQoAAChyFPk20tMzooYGv3p6RqxOBRbr729QIOBQf3+D1akASEFJlUs33VOvkipukAMAANbi14iNDA5Wa/fuKQ0OVludCizW19fMbfoAAAAA0kaRbyO9ve06frxVPp/T6lTi8nhCWliwZ24AAAAAAIp827FrgX/48JD27p3SmTO1Onq03ep0AAAAAABx0CcfKenomFn1FwAAAABgPxT5SElfX4u8Xo/6+lqsTgUAAAAAkAC36yMl/f316u+vtzoNAAAAAEAStOQDAAAAAFAgKPIBIEcCs8Ma/dUPFJgdtjoVZNjibFDX3vZqcTZodSpA0ZkfXdDsNZ/mRxesTgUAbIHb9ZFXHnnkEatTALZoWLrvbkl3W50IsqHN6gRyp6+vTxMTE1anYRnORzZjSrcdsDoJxGPFsYL9E3Zh1bmSIh955+LFi5qbm7M6DQAoSpWVldqxY4fVadgC5yMgMauPFeyfsJLV33+KfBvp6vKqu3tS/f11GhhgkLtE5ubmND09bXUaAIAix/kIsC/2TxQz+uTbSE/PiBoa/OrpGbE6FQAAAABAHqLIt5HBwepVfwEAAAAASIdLksrLyy0JXlNTY0lcu3rzzRqdPBnQwoJbdlw1JSVBLS6m3sOD7QsAhY9jPYBUcKxAMYt+/3O1H7gkaX5+XoFAICcBo2pqaizpJ+N2u3O+rIUQ9/DhIe3dO6UzZ2p19Gj7htNbtX0BALmV6rE+38+DALZmM78L2X9RKKanp3NaHzHwHlLS0TET+5tKkW9LFTUyaholT1nk3ws+mdPj0hwXIwAAueOskNw1hpweQ5IUWjAVmDYVYiBwwHLsnygEFPlISV9fi7q7vervz7NR/x1OGbfslXHzHql8/VgHhiTNz8i8fFbmpTNSOJTzFAEAhc9wSOW3OFR2syFnuRF3mtC8Kd9lU/OXwjLDOU4QKGLsnyg0FPlISX9/ff4V+LVNMvbfL6O8Kvl05dUy9nxIunmvzHdel6bGcpMfAKAouGsN1ex3JCweopzlhir3GCq72dD0O2EFpswcZQgUL/ZPFCJG10dBMlpvlePDD29c4K/8THlV5DOtt2YxMwBAMfG0Gqr7sHPDAmIlZ3nkM57W1D8DIH3snyhUFPkoPLVNMvZ/THI40/+swxn5bG1T5vMCABSVSAuhU8Ymfm0ZDqlmv1PuWgoJIBvYP1HIuF0fhcXhlLH//s0V+GvmYf7i75L20S/bZqhil1OeJkPBOVMTx0MK3sjurVvhfU/rS4/ese51c+yYXvjey5pw2OO6Xbj5IX36cw+o3jDkfeO7+vHrw8mnX1ou0xzR2z/8Y705ao/liIrmd+Glr+rl09bn1vnYszqy25B57gX9+Ysncxa34f7/rCd7WlZt0+i6SWU724FV6w7FJ1IEODZVQKydx8QvQkn7AHM+Smzl+WitTB4HoscWSfK+8V29oifXHS/TEe94m8npi12h758rhcNtOviFL+tA0/I+YJqn9Oq3fqTzS/up3X7npCPd3yH5vKzpoMhHQTFu2Zv0Fv3QjWkFZ7wK++bkKK+Sq75Zzuho+yvnU14l3bJX5uCp+HEMQ/UfcWlhxNTY60G5qw21/BuXZs+FNNOf/dFYVhVZ4Tv1ia8/rie+3rzqgG0H3rER1XXuV8OxoaQ/+Pbs3bflWJ2PPasHO0/bbh1Imc0tHL5TuzqjM+5SZ/hEwnkmi2vn9bWSVesO2KryWxL38Z18P/4w3XW7Kta95iw3VH6LQ3OD8c8tnI9SE68A6HzsWT3ztSe2XBhHjlOjeusHyxepG+7fUrobxLL/sdvuimX/jF588r7xXT33/eXveGRf/T3V27BhBZlBkW8jXV1edXdPqr+/TgMDeTbInV1s3xP3ZTMU0PzZk/JfvbDqdcPhVOXt96gpqTAIAAAgAElEQVSkfWf8eSUo8h1L1wUmTwQVmpMWx0zV3uWUuzr3t205HCf1s3/o0pcevUO7uqTzp3OeQmLeMU12PqAPd72slxPkFW5+SAc6R3XhnLSzM/40GwmH21Rv010m47l1danDMHTh3Cl17L5DBw6163ycH6fJ4m42p4nX/0TPvZ7+5zbLqnUHZELp9sTng8kLN+K+Hq+IiM5rbjD+vDgfbd75F/9AZ5sf0qc/92V9sfEnm2rVjx2nxk/rveuKdYTd6vEy3ueTHRNzfXzOd8Wwf8a7+BTLy3FSL//hSdFzu3CxZW2kp2dEDQ1+9fSMWJ1KfqqslVGx/jF5kjT37gktXPtA5Z2/pdr7H1XDkSdU+9v/VqXbd8lZXRf3M0ZFtVRZG/c9Z3nk79pnphpb6CVQkMaP6q3z0s6eh9UQjn/Fes99D6ju/DH9ejzHueWhcLhNB3v2yTRP6f3jo/KaZuROiQTrFstYd8glV6UhV0XiH/E7j7Ro55EWuTxOuTzO2L8Tzq/CkKsy/vw4H22NY/QVvdI3KmP3E3p4H8eDYlAM+2d439M6stvQZN/ztNQXKVrybWRwsFq7d09pcDB+oYrkjOqGuK8Hb0xp4dqgKvbcrdJblpuKnRXVKt9z14bzNG9MJZ3GXWvIcEf+31FiqKQpTr+/gLL6qJWmpiaZ5oi8cZ7+t7KfoBT/lsV4fSvX9lWK9ve78NJX9f7eP141z2T9ms6eOa0HP7lPt7W+rInR1e9FWvGli/9wQmo6lHD5ki1DNK+IO3TkG9/RkTXTpLJ8yWL9VYKnKm4030znptb96miUdH5AZ69fV/34A7qncf26TRY32k80UU7LfdW+K29PpA9ftI/tWNdnkvZjW7ssa/v8Rdfvg52j68ZeiPabVd+f6sevD6e07qLz2+j7nc66W2l1DvH776YyTSo5rp1Pov0v0fvx4sRb/8m2r136UBeCbLTSuauNDfvxcj5Kfj5KZOzYMV04+Lh27r1bOp36/rt6vzykJ79xKDa2TF/T+uNlOnmv7Te80TExWT/jVI4NmV6ndlYM++eevZGL2m8dG5K2eGzP1vcnU8eDZNPHyzWdZc3nMS4o8m2kt7ddx4+3yuez5+V3jyekhQV75iZJitO3XpKCU5EmYnfLtozN01gxgE/Nfoc8zZGDh7vWUNP963erhdGwxn+eeBC/rQjvezo22M6qommpb+TO8df0/DcjP+AjB7+v6IuNy4VIuPkhfXrvgJ779l/GPtv52LN68JO/p3vH1t/i1fHod6SXvqrnXnTEBnO5J8G0kqSBo3q758u657679eaa4qfp9n2q02m9NSApTo2fyjJMvP4n+rNjS3k0ru+nmOryxZalcfWtbZ2PPatPd66vAlOZb6ZyW7m+6g1DF86ckMPh0HvnR3WgqUUdt7frzdHlk1DyuMlziqrreVJ15/90uQ/fBifI+p6v6D+NHdPz3/xqZDstbbsHN9nnb8N1l+L3O911F5n3yu/CV5e/I/ue1if2ndDLpx0pTpNajsu3VEbmEw636eCnHlbDQOQzG70fi6PT6v1mZD1F80u0/tPdvkiP4cndPDkfpXE+Sui6vOPSzhVjdaR9/tFrKy6WOaQkD+nZTN4bHRPj2cyxIXPr1L4Kff+MjT8zPqqJLc4nG9+fbB0PtvI7JN3fFPmgMPbWAmLXAv/w4SF9/vNndfjwkNWpbFomr9sujIU19LeBDM4xPfU9X9EzX/sjPfO1P4qMSn/uhXVXGvd8KnJgfnVFC53j9F+q95wpdR7Svc2R2xIdo6/ox2sOXmePv6ZJNeue++5eF9s890LsCqrDMay+lxJPG53mvfOjq2JKkQPqhw82a7LvaMIfKqkuQzKpLl/ToSd1oMnQxX9YfSI4/+If6C1v86bnm4ncpEjheVtnc+R284HIa2PHjumCaaru4GF1Zvi28zqd1ivHUt/f17YGOxwn9bMfprc+0pHOdyPddZfou+A4/Zex734q06SSY+zH2Pljsfk4HMN688VXYj9Skr2/HGdUb/9w+Ue/wzGsvu/9RBfVrHseXd9dJt3tC/vifJT6+SgRh2NYXu/q1zJx/kkkU3lvZDPHhlzlViws2T9bW1QnSd6RLd2hla3vT9aOB1v4HZLN/d0qFPlISUfHzKq/trTgi/uyu7Yx8vbwpYzN02reN76r5779+3ru27+vP/vmd/V2/eN65mt/FOtPuFwYDKwroCfGR2UYLapP0MqQ7HFDknTxzInVL1wf0eQG+Y69e1qTalbH7e2x15oOHdJOjerCu/ELja0sQzLxli9WBI4d068H1n/m7JmNR4/aaL1tNreYrsORx9+sWB8Ox0m9f14yjMggV5k0ef6dtH4cxJ3++ju6MK6lkewzd4JM+7uRxrrb6LuQ+jRp5rjROkrwfryLAFHRZVTjPt3Wuvpz6W5fpMdcyI95ZkK+nY9Ska3zT1S28l5ps8eGXORmtWLaPzcrW9+fbB4PNvs7JNv7u1W4XR8p6etrUXe3V/39Nh3CXJI5MxG3td5ZWStP2y3yvdcvmWGVtO+Uo8Sj4MyU/BdOyVVdp7IEFZI5s5UbnXIjelW1/uuPRwa4G3hZY0tXcY3dT+iZrz2R9PPRW5Q6tlCcSpLqW9QQDsctHByjr+it8w/owYOH1XnsRzqru/Xhg83S+Z8kvn0qjWVIJrXla1V9o6TzqV/1zsR6S2ce0ccMRk6gyzmePXNaR3bfEbcv6VZMjg0pnevA8aaPtY41ZiytiDS/G2mtu1jf/STfhZSmSTXHyG3CHU2RPrYH1vX/2+D9pTiT49fjzn1ifFSK89SKdLcv0hOYyXyf92zMM9Py4XwUP250hPyl25szdP5JW5p5J7XJY0NOcrNYwe+fS4V1/GGlU5Sl7082jweb/h1i1f6eZRT5SEl/f72tC3xJ0o0pmXMzcUfYL7/9gCRp/r1+zb/XH3vdcLnluemWuLMz52akDQbds4vIVdXHtbOzWQ2SouMdxRsEbMWnlvpLRQ6g0cGCIn1+o/2wMidaUB041K6zY0uPMltTdMWz0TIkk63ly8R805nHyue7dzz6HT3zaJwZdh7Svc0nbNVnMtuPNkzlu2H1utsox5VFUYdhRG597lke7Gej92FPwRumgnNmwhG8L/aOxP13ohG8g3PmhoN62UU+nI/WSXDhbivnH9hX4e+f68eYsJtcHQ/S+R1SaPs7RT4Ky5Wz0p4PrXvZ4XKrsvugSnferuDUuMzAopzlVXI3tspwuhPPK19Fr+JudOV96YfN8oEtiwexgaN6q2ef7uncr4ON+5b7RycKmeoyJJPu8iWI1dS05j6tTKy3NObRdOhQ5KLIBqPaxxtELlfqmtolrY29dIfEFgf/WSeN70ba6y6VeWdqmiXR5xWvbLWoO/ik7n038qMm2ft9S3F2NrZq/fqXGhqbJZ2Wd8Xzu5Eb/iumKvfELyKSPY4r0bzylh3PR2tEBoEd1dvHly48Z+L8YzWODUkV8v4ZHQvpQFOkO9r5jXscrpet708Wjweb/h1SCPt7HIWxFMAS89IZmfOzCd93VdaqdNsule24XSUt2xMW+Ob8rMxLZ7KVZsatHUk1WX+plHR1bf12yTWiJx2j6ZAO7DaSDrgXmX6Ly5DMmuVLFiva/3oz881EbvEGjVtnYCAyiJyFz32PG3tpWVb2k0vUvy06+n0qUv1ubGbdpTLvTE0T7zMv/+Ef6Pk3RuKuo3jvx+LEGRgoWT9DZN/8pbBC81v/8R+aNzV/KX8GfcqH89FK0ScCrHyeeFbPPznCsSG5Qt8/x449r7fGTO385Gc2NSZOtr4/2TwepPo7JOM52VRx7tkoXOGQzHdel8JbePxImvMY/3lIQ38bSPpfth5XJC3f9r1To3r7peVRQWMjkH5u9QE+vO9pffGxOyP/iDMgSbj5IX36k/uykuvYu6flNU2Z5kjCAfdWSmkZtOICwtoB6NJYvrM/XRotdkWs6ONfOrTmEXppzHfLua14vnuik2lsELmmQ/pw1wZxN3hvs4ymQ3riU8uj10aXxRw7tmoU9+h3YGfP8qi84eaH9NDBOE8wSJJnSt+NTa675e/C760epX/f07HBxFKaJoUcw+E79fCK77IUaSGJXpjY6P3Vuaz97i6NFvzTNQMhISfMsDT9TljmFn7/pzsPzkfp5Xrvf3w29mz5td1fUj3/5FK6x26ODYkV+v65PAr+Ph35xndi56WocPNDeur//s9JR43P1vcnW8eDVH+HbDqnPMPt+ig8U2My3/m5jP0fkxxpPpIwHJL5zs+lqbGNp7VQtF9ulDl2TC986+VVVykdo6/or741ok98/XEd+cZ3dCQ67Yo+Ryv7+0anMc1TevVbP9GuLPSBjA3Ap/WjtSaafqNliBo79rze6vyyDiz1u472WU51+RyOk/rZt7Qu1oWXvqq/0mf0pUdbVkyb3nrbSm577nsg9nz3ZNdl4w0ilyjuRu9thveN7+qtxi+vGrQmtp3Wfi9/KH36cw/oyW8cikw3dkwv/PA1PfS5B9bNN1GeqXw3NrvuorfHdz72rI78h+/owKp5L7f0bThNSvvgSf3szNP60sr1tmJ/dij5+7F5fOu6Dn7hy6vjxDkuILcCU6am3wmpZr9TRpqbIVJAhBSYstetwGvly/lobZ7R+M99P/6twOmcf3IpnWM3x4bkCn3/jHX12ve0vrRmTJrId+CPN+xKlo3vT7aOB6n+DtlsTvnG+OxnP2uePHlSgUBun+FYU1Oj6enpnMaUJLfbnfNlTTVuV5dX3d2T6u+v08BAZkarsmp5s7V9H3nkEQ0MDKQ279omGfvvl1FeldK8zfnZSAu+zQt8ALBSTU2Nurq61NfXp4mJ1EdbsPP5dzPSOR+5aw3V7HfIWZ7abeeheVPT74RtXUAAG9nssWKlze6/7J+wWrzvfy7q3w99KDI2GS35NtLTM6KSkrB6ekYyVuQXtakxmb/4O+mWvTJu3iOVrx91X5I0PyPz8tlIH/yt3OYPAEAcgSlTE78IqfwWh8puNhIWE6F5U77LkT6+W7mNGEDq2D9RiCjybWRwsFq7d09pcDBBMYr0hUMyB0/JHDwlVdTIqGmUPGWR9xZ8MqfHpbnc31ECACguZliaGwxrblByVkjuGkNOT6SYCC2YCkybCs1ZnCRQpNg/UWgo8m2kt7ddx4+3yudLsx95jng8IS0s2DO3lMxNy6SgBwBYLDQnheZMSdzuC9gN+ycKAUW+zdi1wD98eEh7907pzJlaHT3abnU6AAAAAIA4intYTaSso2Nm1V8AAAAAgP1Q5CMlfX0t8no96utr2XhiAAAAAIAluF0fKenvr1d/PyP+AwAAAICd0ZIPAAAAAECBiLXku93unAe3IiZxCz8uACB30jnWcz4Citdm90P2XxSC6Pc4V9/nWJEfCARyEnAlK2K63W7i5ki24lZWVmZlvgCAja09Bqd6rC/E8yDnIyCxzR4rVtrK/sv+CSsl+v7n6jxIn3zknR07dlidArBpc5V75fFfkys4bXUqALaI85F9+Mqn5fFXyhG256OIkXvsn5sXdC8oZATlWaywOhVsEkW+jXR1edXdPan+/joNDDDIXTx9fX1WpwBsmmE41PTJz2hx9rSmfvVnVqcDbMn0dHFfqOJ8ZB+GQ9r+cK1mhxc0edpndTpYw4pjBfvn1jR/pFKuUoeu9fHo7K2y6lxJkW8jPT0jKikJq6dnhCI/gYmJCatTADatds8RuWpulrOyTVeO/79anBm2OiUAm8T5yD6a76iVq8yh6l0eDf76mkILYatTgsXYPzevrL5EFe11MgxDgVKfZobmrU4Jm8Do+jYyOFi96i/SV2yDOlkVt6amxpK4+byeDcOh5nv/z8j/O91q+tBncxJ3M9i+hR3Xqu1bbIpt+1q1vJ7SErXdWSdJcpY41Npdl5O4bN/CVszb96Z7GmQYxtL/Z7fRsdjOv7lEkW8jvb3t+sEP9qi3t93qVOLyeEJWpwDkrZrdh+WpX+4fWLfvEyqpbrMwIwDIf/W7q1RSsXxjaktXrZweft4Cm1FWX6K6Hcv98KvaylTdXm5hRtgsjoI24/PZc8CYw4eH9PnPn9Xhw0NWpwLknZWt+LHXUmzNBwDE53Aaau5effdjLlvzgUKzshV/+TW6EOcjinykpKNjZtVfAKlb24ofRWs+AGxe496aVa34UbTmA+lb24ofRWt+fuIIiJT09bXI6/Wor6/F6lSAvBKvFT/2Hq35ALApDqcR64u/Fq35QPriteIvv0drfr6hyEdK+vvr9dd/vUv9/ezkQDoSteJH0ZoPAOlL1IofRWs+kLpErfhRtObnH45+AJAlyVrxY9PQmg8AaUnWih9Faz6QupY7axO24kfRmp9fKPIBIEs2asWPojUfAFK3USt+FK35wMbK6ktUc0vZhtPRmp9fOPIBQBak0oofm5bWfABISSqt+FG05gMbS9YXf/20tObnC4p8AMiCVFvxo2jNB4CNpdqKH0VrPpDYRn3x16I1P39w1LORri6vnnrqgrq6vFanAmAL0mnFj32G1nwASCqdVvwoWvOBxNJpxV/+DK35+YAi30Z6ekbU0OBXT8+I1akA2IJ0W/GjaM0HgMTSbcWPojUfWC/dVvwoWvPzA0c8GxkcrF71F0D+2UwrfuyztOYDQFybacWPojUfWG8zrfjLn6U13+4o8m2kt7ddP/jBHvX2tludSlweT8jqFADb22wrfhSt+QCw3mZb8aNozQeWbbYVP4rWfPvjaGczPp/T6hTiOnx4SJ///FkdPjxkdSqAbW2lFT82D1rzAWCVrbTiR9GaDyzbSiv+8jxozbezzV8SRVHp6JiJ/T161J53GgBWM82wzv/oUwnfr9h2t3Z+6nu6+NMvaO7qiRxmBgD5yzSlsy9djfuey+WSp96pjsNtunB0WHOjCwnnEw6Z2UoRyCtX+sZ09VfjsX+7XC4Fg8HYvyuaPSntUzIksVvZEkU+UtLX16Lubq/6+7lqBwAAcscMm1qYDcR9L+yWHGWR/w/4QgmnA7Bs8UZw1b/DbikQWN53SqoiJSL7VP6iyEdK+vvrKfABAAAAwObokw8AAAAAQIGgyAcAAAAAoEBQ5AMAAAAAUCAo8gEAAJC3zKVR8x0uftYCmRDdl0yeSJG3OBraSFeXV089dUFdXV6rUwEAAMgL8xMLMsOmqtrKrE4FKAhVbWUyw6bmJ5I8Pg+2RpFvIz09I2po8KunZ8TqVAAAAPJCOGjq/MvXNNI/aXUqQEFwug3NXvMpHKQlP1/xCD0bGRys1u7dUxocrLY6FQAAgLwxc3Xe6hSAgnHpl2NWp4AtihX5brc758GtiGnnuMeO3aq+vqD8fpcymWKmltfjCWlhwZnzuOkiLnHtGtflcsX+pjq/fF5e4hKXuMTNddy2u2o1fm5WgblQTuPmEnGJm6247gqnwgFTocVwTuNaodDjxor8QCCQk4ArWRHT7XbbOm5kkszll6nlPXx4SHv3TunMmVodPdqe0mfsvJ6Ju3XFtLyZihsMBmN/U5kf25e42VJMy1tscaXi3b6ltSVq3Fetxn3VuvrmuMbOzWRt4DC2L3GzxYq4JaUlqt1Zpm33NmrivVld+sVoTuKyfbOH2/WRko6OmdjfVIt8AACAXPFPLerUTy9px/0tuuW+Zm0/2KjZ637NXJ3XzJV5BhEDVihv8Kh6e7mqt5Wruq1MhtPQzNV5DZ9kAPBCQJGPlPT1tai726v+/nqrUwEAAIhr8UZQ5342pOpt5arZXqHq7WXafm+jdK8U8IX0wfERTQ3OWZ0mYAmHy9CtH2tR9bZyucsiXXDnvQsae3dWk5dmGduigFDkIyX9/fUU+AAAIC/MXJ2PFCy/ktzlLlVvK1PN9gotzgZj02z/SKMkQzND8woH4/dBvjHij93yX9FcKofLkBQZWyUYXP8zOtH0iaQ7veFffj8b8091eQO+kEILYQXmg3Hnk0muUqdcHofcFYnLlvmxBYUCkW1Y0VQqhzv5cm40/drlzfT8czW9w+VQdXu5rv7LuMyQqXDQVGltiWauzmv6ypxmrvoUmA9aevs6soMiHwByxOGKDLZihrP/owgAEBGYD2ri/Kwmzs+uet1T6VbNLeVq3V+b8LMDL1ySf3pRkrTz4y0qrSlJGivb03/wM6+0dDe1HfIZeOED+acjxeHOQ60ynIaCCyEF50NanA8qtBi5EDA77JPiDI9Q1Vamkkq3nB6H3GVOlVS65C5z6vIbY7H5dj58kyqaS5Pmcebvr+jGiF+SdPNvN6myhemjwsGwvBdmNTcamf7d/3E56bxRGCjyASBHPA07JUmLk5cszgQA8P7RYRlOQxWNHhnO+C2hCzeWWzcv/q+RNS3b6y/YJpo+kXSnd/o9WZ1/qsvrLnfJWeLQ4tzya063Q6X1JXKWOGK3gkd9cHxUY+9Or3rt5oNNaulecYHFjMQP+kJyljhiL1874ZWzxKnFucQtzT7vYuz/L/9ybMOW8I2mX7u8mZ5/rqY3Q6bmxheyNgAl7IsiHwBypLRxlwI3xhT0TVmdCgBAkSIo2iK6kWhLqJTa6Nwrp093/onUrGhZz8b8E02fyvK+13tt1b/d5S45PQ7d0tOk7fc2aubKvBZmI/OIFvgjp6Y0OjCl4EJYQX/8xx5OXUpvDIW5sTSXM870yZY3E/O3cnoUB8fGkwAAMqG0qVP+8fetTgMAgKwLzAfln1zUBz8fjfT7Lo+07pdUuNRwW5VG+qd0+ZeR2/ITFfgANoeWfBvp6vKqu3tS/f11GhhgkDugoBhOlTbs0PilN63OBACAnFmYDWjgby7F+uQvzgV1+sXLq271B5BZtOTbSE/PiBoa/OrpGbE6FQAZVlp/iwxnifxjtOQDAIrMmi7hFPhAdlHk28jgYPWqvwAKR2lTpyTJP3be4kwAAMi96pvKtf/TO1R1U5nVqQAFj9v1baS3t13Hj7fK53NuPLFFXC5Td945ocVFh/r762UyWCeQktKmXTJDi/J7GVkfAFB8am8tV0mFS+WNHs1e81mdDlDQKPJtxs4FviR1d3v1kY9EuhPMzzv13ns1FmcE5IfSpk75JwYlk8GFAADFp/bWSsmUxt6dsToVoOBxuz7S4vc7V/w/14iAVJU27uJWfQBAUXK4HPJUubUwG1A4GLY6HaDgUaUhLe++W6u5OZeCQYeGhsqtTgfIC66yWrkrm3h8HgCgKO34WLNkSGPnZq1OBSgKFPlI26VLlVanAOSV6s6PS5J8I+cszgQAgNyqai1T/W1VCvpDGj45YXU6QFHgdn0AyKKS6ja1/vYXdePyrzU39K9WpwMAQM6U1pZo10NtkqT3XxmWuFMfyAla8pEVlZV+tbdPaXCwyvaDCQLZ4nCXqf3Br0mShl79tngcBQCgEJXWl6j25gpVNpdq+sqcxs5EBtfbdbhVrlKnxt+b1ex1RtQHcoUiHxlnGNJDD51SRcWirl0r14sv7tjwMx//+DV1dk7rV79q1m9+05B3099//xXt2jWZtfnD3iraf0syIheznCWlKr9pvyq23a2y1ttlOFwa+uc/1OLMsMVZFq6yBo+q25M/d9k3GdDMlbm40zudToVCoZSnT3f+iab3XV/M6vwTTV9aWqpSv5G1+Sea3qrlZfsW9vKyfXO/vLU3V6iiyaPS2hKVVLrkKDFkaDknd7kzVuRfe8urklq3rvdPJo0BILMo8pEFptzuyP1YJSUb35fldoe1b1/k4N/V5d2w6LXj9Hv3TmRt/qWlIT344FU5HNKrr7Zrfp7d1k7a7v+/1HjXE6teM8NB+a6/q/G3/0o3Lp/QjSv/YlF2xaH1t+rUeFtV0ml8k4s69Tdztpr+3N9dszCfqjSn33o+1i5v7qdn+2Z2/nabnu0rmTIVXjTl9wbkn1rUjVG/pi7Pye9djH3W+8GNpPMGkB1UCzbS1eVVd/ek+vvrNDBQb3U6m2aaho4evV2Njdd17lzNhtMHAg6dPl2nzs7plJbbjtOfOdOgXbsmszL/3bundeutkZPk3r1TOnGiccPPIDeiBf7Eb36q6fPHJEUKfP/YeYUD3JaYLY27q7X93gYN/M0lBf1hXf/NpObH/Ek/45sMxP5/7fSJWgITTZ/u/O02fWlpqfx+f8rT2y3/dKdn++ZX/ulOz/bNfT5zoz7NDPlWFfMA7MX47Gc/a548eVKBQGDjqTOopqZG09PTOY0pSW63O+fLmmrcL3zhjEpKwlpcdOh739ubs7jZwPbNnMZGvx57bFCGIf3939+q69eXb6tj+1oXN1rgj//rCxp+/b/lLG4u2Hn77jrSprodlTJNU+/9f8OavjqXk7jZwPYlbjawfQs7Ltu3sOOyfQs7bi6274c+9CFJtOTbyuBgtXbvntLgYLXVqcBGxsdL9d//+24ZhrS4yAMx7KBi292RFvyTf5O1Ah/r7fhYi+p2VCowH9S7f3dFizeCVqcEAABgOxT5NtLb267jx1sZjR7rBAIU93ZS1rRLkjT6L39hcSbFo6TSpYY91QothvSbvx7kMUwAAAAJUDnYDAU+YH+ehp0K+qYVnJuwOpWicdu/uUmGIX1wfIwCHwAAIAmKfABIk6d+hxYmLlqdRtGo31Wl8gaP5icW5H1/1up0AAAAbI0iHwDS5GnYqQXvoNVpFAeHdOt9TTJN6b1/umZ1NgAAALZHn3wASIOrokGushpa8nOkrM6jwFxIM0NzDLQHAACQAop8AEhDacNOSZKfIj8nfBMLGvibS1anAQAAkDdiRb7b7c55cCtiEpe4hRK3rs6vhx66oIUFh/7pn3bK58vtNbtiWc9r45YvjawfnL6ck1ysXl7iEpe4xCUucYlLXOLmV9xYVRAIBHIScCUrYrrdbuLmSDEtrxVxOzomVFvrlyRt2+bVu+/W5TR+sazntXHddbcq6JuWf3okp3Fzzer1HHXLfZH6KzYAACAASURBVM0KL4Z15c3xnMbNBbYvcbOlmJa32OJKbN9CjiuxfQs5rpS77cvAe0CeunChWn6/SzMzbl2+XGl1OkWDkfVzq3F3tRo6q6xOAwAAIG/QJ99Gurq86u6eVH9/nQYG6q1OBzY3Olqqv/iLOyy7ElmsPA07NfPe/7I6jeLgkBxOQ745BtwDAABIFS35NtLTM6KGBr96erJ/GzCA9DGyfm5VNJVKknxTXMgCAABIFUW+jQwOVq/6C8BePLXbJUl+L6O950LlUpHv9y5anAkAAED+4HZ9G+ntbdfx463y+ZxWpwIgHiOyb5ohWpZzYukydDgUtjYPAACAPEJLvs1Q4AMAAAAANosiHwAAAACAAkGRDwAAAABAgaDIBwDY0vzogmav+TQ/umB1KgAAAHmDgfcAALY0e92ns//zqtVpAAAA5BWKfCCPffjDw+rqGtM77zSor6/Z6nQAAAAAWIzb9YE8dscdY3K7w+runrA6FSDjqlrLtOd3t6mqtczqVAAAAPIGRT6Qx06dalIg4FB/f4PVqQAZV97sUdVNZSpv9lidCgAAQN7gdn0b6eryqrt7Uv39dRoYqLc6HeSBX/+6Tb/8ZaPVaQAAAACwCVrybaSnZ0QNDX719IxYnQoAAAAAIA9R5NvI4GD1qr8AAAAAAKSD2/VtpLe3XcePt8rnc1qdCgAAAAAgD9GSbzMU+AAAAACAzaLIBwAAAACgQFDkAwAAAABQICjyASBFgdlhjf7qBwrMDludSlGYH13Q7DWf5kcXrE4FAAAgbzDwHrDkkUcesToF5IVh6b67Jd1tdSLFwZRuO2B1EpvT19eniYkJq9MAAABFhiIfWOHixYuam5uzOg0AeayyslI7duywOg0AAFCkKPKBFebm5jQ9PW11GgAAAACwKfTJBwAAAACgQFDk20hXl1dPPXVBXV1eq1MBAAAAAOQhinwb6ekZUUODXz09I1anAgAAAADIQxT5NjI4WL3qLwAAAAAA6XBJUnl5uSXBa2pqLIlrV2++WaOTJwNaWHCrEFZNUW3fulYZ5ZVSxdIFmrkZmfM3pMnr1uYFwHJ2PBbaMSdkDtu3sLF9Cxvbt7Dlavu6JGl+fl6BQCAnAaNqamosGcXc7XbnfFmLMW6xbF+jabuMm/dITe3r35OksSGZl8/KHLuSs5wA2EuiYyHHZ+JmA9u3sOOyfQs7Ltu3sOPmcvvyCD1gk5xHPiPT2GCipnYZTe1ymFKo90c5yQsAAABA8aJPPrBJGxb4m5wWAAAAADaLIh9IQ8feO3Tv/Q9u+vP33v+gOvbekcGMAAAAAGAZt+sDadh9x2/JOza65XlcOHMq6TRl2wxV7HLK02QoOGdq4nhIwRvmluKmq/OxZ3VktyHz3Av68xdPxp0mvO9pfenRO+R947v68evDOc3PCtHlXcscO6YXvveyJhz2uG4abn5In/7cA6o31t9Ckmx7piv6HZEk7xvf1St6Uk/2tGz6+9Bw/39O6/PpTg8AAFAMKPKBFDW3bZMRp2iKCkxPyv/Bu1IgIFd9k1wNN8ldU7duOsMw1Ny2TaPDV+POxzAM1X/EpYURU2OvB+WuNtTyb1yaPRfSTH84Y8uTTDh8p3Z1Lv2js0ud4RM6n6MCtvOxZ/Vg52m9+q0f5SxmujmsLCrD4Tv1ia8/rie+3mxpzvHEK347H3tWz3ztiS0XxpF1NKq3fvDHenM0sswN928p3Q1iWfudAAAAyBcU+UCKbolVvevN/usbCo4Nxf4dnBiV3jut2gc+KaPEE3deiYp8R1nk7+SJoEJz0uKYqdq7nHJX57Bjf1eXOgxDF86dUsfuO3TgULvO56ClNBxuU3191sNkNAeH46R+9g9d+tKjd2hXl3T+dPZyy4TzL/6BzjY/pE9/7sv6YuNPNtWqH1tH46f13nXFOn5NvP4neu71zecW7/PJtsdW4wEAABQiinwgBa3t29Xctv4xeZI0+/bPFbwxqcoDH5O7viX2emB6Mm6BL0nNbe1qbd+u60PrH63nLI/8Dc2tft1wbi73dIXDbTrYs0+meUrvHx9VXaepus79ajg2ZJvb0bE1jtFX9ErfPj3Z84Qe3ndCL59muwIAABQKinwb6eryqrt7Uv39dRoYsLg5E6tU1a6/7V6SApPjCk6MqOrDH5ertmHVe/Fu1V87z3hF/qp51Boy3JH/d5QYKmmK08c6IAWmMthfv3W/OholnR/Q2evXVT/+gO5p3KfbWl/WRJLhCNb2VzfNU3Fvr472o4668NJX9fJpx5rX79CRb3xHR7R8y3l0/hde+q68PV/WgSZjVV/4eP3lo/Nea20O0X7qG+WQSFNTk0xzRN6x9e+t7LeuBPNKJfdobhde+qre3/vHq+aZaDmTGTt2TBcOPq6de++WTq9uzU+W8+p1dEhPfuOQTHNEb//wj9XX9JmlbbScTzp5L2/jdL8T65d/7TLE+z5mep0CAADYAUW+jfT0jKikJKyenhGKfJuprW+I+7p/8IwkrSvwtzLPlf3+a/Y75GmOFBruWkNN96/fZRdGwxr/eSjt+Ik03b5P9YahC2dOyOFw6L3zozrQ1KKO29v15mj8Qre+5yv6T2PH9Pw3vxopuJf6qT/49d9T/Q+X+2wv9+P+qt4cdUTuGvjUw2oYeFkTr/+J/uxYmw5+4cu6pzFx/+u6nidVd/5P9dz3l3JxOCIDze0d0HPf/svYdJ2PPasHP/l7undsOX44HJ3/cg5SpLj8xL4TejnFHFYK73s6NvhbdH6RWJF1sHP8NT3/zZUXIr6iLzYuD36Xau5RHY9+R3rpq3ruRcfy8iSYNrnr8o5LO1eMuZBKzqu2k15bMeCgQ2pKHG0zeaf6nVgptgw6rd5v/mhpuSLzWPt9zPw6BQAAsB6/XmxkcLB61V8Up4WxsIb+NmBJ7HC4Tbd1Nkdu1R+IvDZ27JgumKbqDh5WZzj+wH9rR5d3OE7qZz98TZNq1j333b0076XB/M4fixVODsew3nzxlbS6AdTptF45NrTqNcfoK/rxmr7lZ4+vji9JTYee1IEmQxf/YXXx5jj9l2m12tb3fEXPfO2P9MzX/khfevQOmedeWNc6v+dTkULz1ZXr5fRfqvecKXUe0r3N4bRyjzLPvRDL1eEYVt9LiadNxuEYlte7+rVUc96MTOW9kcgyjOrtHy5fEHA4htX3vZ/oopp1z6MPq2HN9zhXuQEAAOQCRb6N9Pa26wc/2KPe3vh9v2GdKe9E3NdLd+yRJAW8Ixmbp6W6DutAkyGdH1hRIJ3U++clw4gMLBfP5Pl31hfq19/RhXEtjc6/oqha++80xY21RrxHyMUuYIwd068HNh1eUuR28ee+/ft67tu/rz/75nf1dv3jeuZrf6SH94WXYkUvaAysa3meGB+VYbSoPkGrd7LH30nSxTMnVr9wfUSTW1ucLeecimzlvVK8C0lR0e+xGvfpttbc5wYAAJAr3K5vMz5fjkZXQ1pmp+L/5HfXNcnV0KQbJ/tUfvvd8rTdHHtv8foVOWsa5CwrT2ueVtqzd5+kaNGzXCSdPXNaR3bfEbf/tiRNjg1p7TXDWEtxY/SVyO3hHU2RvtUHNvkIt3ixordodyR5xOHyWAMjGR1AMNpKXP/1x7WzJ9L1YKy1RXWSjN1P6JmvPZH08ynlnor6FjWEwykv2/II+aOakKQ0cs6oNPNOamkZJsevx317YnxUSvyQjOzmBgAAkCMU+UAKrg9d0ejwUNwR9qvueUCzb7+m+f43Nd//Zux102Go/uP/Lu78RoeHNhx0L9diraCK9FF+5tE4E3Ue0r3NJ1Lqp7z20Wcri+EOw4jc8t6z8aB2qcQ5+IXIPKMDwEX6+0f7ZmdfpJX4ce3sbFaDpOj4e9EB/RJ8ytrcE1z02ChnAAAA2BtFPpCiS++fT/gYvap7HlBgckz+wbMyZcrT0KaS1nYpQQvgpffPZzPVTWk6dEgdhpFwVPHoSObxBuCra2qXtLZQb1V9o5ZbihUphl/+w5OrWq/rDj6pe9/dwgBnS8XqcnGaYD5Lt2DX5aJ1NtVYqeaeBU2371OdRvX28aW7NnK5frJlaRl2NrZq/fdRamhslnRa3uviegUAAChY/MwBUjQ6fFWmmfhRde66JlXd9VFV33WfPLfcJsMT/zZ90zQ1Onw1W2luSrwB99YZGIgMwNe5f93AZfFeU1eXOgwjbh/6SLH/B3r+jZEt9/VOaCn+ypiJ+mRvVewuiKULGluOtSb3TIs+EWCy7/kVgyBmb/3kSmwZ4gwSmGzMAQAAgELCLx0gDedO/San8xj/eUhDfxtI+l9GHp8Xu3U7cQEUG4Cv6ZA+vGYAPqPpkJ741PJI5OHmh/TpT+6TOXYsNhJ+OHynHn7szlWfa2hcfWHB4RjWe+dHkw7yt06cAf6i8dc6+9OlEdY/93urisDwvqdjg+alm0P0lvudGtXbLy2PSh8bIf9zn1k10GB439P6YnQ9pJF7JoTDbbr3Pz4be7b82m4SKeWcY+luj+VtvLwMy9votF796YkN5gAAAJDfuF0fSMOFM6d04cypTX/+zddfzWA2mbPnvsho7hfWDLi3VqIB+LxvfFdvNX551YBtsVvQVz5W78zT+tLKacaO6YVvvbyqpX/s2PN6q/PLOrA0LsBGffZX9vU/8o3v6Igk0zylV7/1E+1a06892l2g87FndeQ/fEcHVuWaeg7R8QSSLYdj9BX91bdG9IkVea1aL2nmvhlr84zGf+778bsGpJKzFdL5TjgcJ/Wzb13XwS98efUyxNlGAAAAhcj47Gc/a548eVKBQG6fy11TU6Pp6emcxpQkt9ud82Utxrj5uH0feeQRDQwMpJy388hnZKZ4R7VhSqHeH20qLwD5paamRl1dXerr69PEROJHZXJ8Jm42sH0LOy7bt7Djsn0LO24utu+HPvQhSbTkA5sW6v2RjKbtMm7eIzXFH5BPY0MyL59VeMxeI+kDAAAAKEwU+TbS1eVVd/ek+vvrNDBQv/EHYDlz7IrMsStSXauM8kqpojryxtyMzPkb0mT853UDAAAAQDZQ5NtIT8+ISkrC6ukZocjPN5PXZU5anQQAAACAYscIRDYyOFi96i8AAAAAAOmgJd9Genvbdfx4q3w+p9WpAAAAAADyEC35NkOBDwAAAADYLIp8AAAAAAAKBEU+AAAAAAAFgiIfAAAAAIACwcB7wAqVlZVWpwAgz3EcAQAAVooV+W63O+fBrYhJXOIms2PHjgxmgkIUdFXJFZy1Og3kkWTHpHw8ThKXuMQlLnGJS1x7x40V+YFAICcBV7IiptvtJm6O5Nvy9vX1ZTgbFBpHSaUa/+2fauwfvygz6Lc6Hdjc9PS0pMTHQo7PxM2WYlreYosrsX0LOa7E9i3kuFLuti+36wNLJiYmrE4BNtdy8DG5qrdJ2+7XxIkfW50OAAAAsA4D79lIV5dXTz11QV1dXqtTQZoK/ZaftWpqaiyJa+V6dnqq1HjXE5KkpgNPy3CV5iSuFYpx+wIAABQKinwb6ekZUUODXz09I1anAmCNxruflKOkQpLkKq9Xw/5/Z3FGAAAAwHoU+TYyOFi96i8Ae1jZih+Vq9Z8AAAAIB30ybeR3t52HT/eKp/PaXUqAFaov/PxWCt+VLQ1f5y++QAAALARWvJthgIfsBenp0p1+z8V9z1a8wEAAGA3FPkAkMTKvvhr0TcfAAAAdkORDwAJxOuLvxat+QAAALATinwASCBZK34UrfkAAACwE4p8AIgjlVb8KFrzAQAAYBcU+QAQRyqt+FG05gMAAMAuKPIBYI10WvGjaM0HAACAHVDkA8Aa6bTiR9GaDwAAADugyLeRri6vnnrqgrq6vFanAhStzbTiR9GaDwAAAKtR5NtIT8+IGhr86ukZsToVoGhtphU/itZ8AAAAWI0i30YGB6tX/QWQW1tpxY+iNR8AAABWclmdAJb19rbr+PFW+XxOq1MBilJJzU0aP/H8utcdDofC4bDc1W2q2/cJTZ7+mQIzw4nnU92mBe9gNlMFAAAA4qLItxkKfMA6vtFz8o2eW/e62+1WIBBQxba7Y0X+3NUTFmQIAAAAJMft+gAAAAAAFAiKfAAAAAAACgRFPgAAAAAABYIiHwAAAACAAkGRDwAAAABAgaDIBwAAAACgQFDkAwAAAABQIFxWJ4BlHk9IDz98RR5PWL292zQ5WWJ1SgAAAACAPEJLvo3s2DGr7dvn1Nzs0969k1anA2ANhyty4c0MBy3OBAAAAIiPIt9GhoYqdOOGS4uLDn3wQZXV6QBYo7TpNsk0tTBx0epUAAAAgLhit+u73e6cB7cipp3j+v1u/fVf3yGHw1QoZChTadp1eYlL3HyLW956uwIz1+QI++XIUR7FuJ6JS1ziEpe4xCUucYm7ebEiPxAI5CTgSlbEdLvdxM2RYlreYosrFef2LW3arfmRMznLge1L3GwppuUttrgS27eQ40ps30KOK7F9CzmulLvty+36AJACp6dKJTXt8o2csToVAAAAICGKfABIQcvBz0uGQZEPAAAAW+MRegCwgeaPfkn1v/W/a/xfX9CNy29ZnQ4AAACQEEU+ACRiGGr72FdiBf7w6//N6owAAACApCjy80RVVUAPPXRF4bChf/qn7ZqfZ9MBWWMYqrnt42r+yH9QacNOeX/zNxT4AAAAyAtUinli9+5ptbX5JEm33Tajd96ptzgjoPC4KptUuf0eNX3oMypt2Cn/xEVd/tl/0fzgz61ODQAAAEgJRX6euHSpUnffPa5wWLp8uWLD6e+4Y1If/eh1DQ7WqLf3JplmatNfuFClo0e3ZXz66uqA9u6d0uXLFRoeLt8wf2AjrvI6eep3SDLS/qzhcMpTu00lddvlrtkmT+12ldRuk8PlkaRYcT/93v+STNOyZ6kCAAAA6aLIzxNjY6X6/vd3S5JMc+Oi5o47vHK7w+rsnNTx480b3t4fnX7Pnmn98petGZ/+yJGramub1113OfT97+9WKMSDHZC6im13q6xpl0obd6qkfqdKG3bKWVq95fmGgwtanLqqhakrunHpV1qcvCK/d1BzQ7/RhleuAADA/9/e3ce2dZ13HP9dihQlWhJlvkiyYsupJKu2ZFt2mrqZU6RqgCVd1iEGFhRxhg4N0A0d0Kwp2m5/JMUwLAuQNkU7pMCGrX+sHdZ0bdelw9ClwZA4WaPFTQzZjuXakuX4JY1sSpRI6l2kePcHzWtRoiRSokjp6vsBAluX95znufcogh+de84FsAFR5G8iuRT3aefO+ayZ/KmplYc5ff7AQPW6nB+Pp4r6RMLQamZesTVV1rWp8f6/kKexU5I0Nx3TdPiyIhdf0ezIFU2Hr8hMJlbRs6mZyHUlxocKmzAAAABQYhT5NnXu3HadO7ddLpdLphnP+fx8+8/Vf//3TrW0jGlw0KO5OYp8LK/MXaX6e/9M/s4/VGIqpvdfeUZjl9+QER9XPL7y9zMAAACwVVHkoyhmZsp0/nxtqdPAJrC9/dNquO/P5aysUfjMv+vmm3+vuZlxSWJtPAAAALACinwAG4b/8KNq/ORXNPnBGV352Tc0FeordUoAAADApkKRjw3ljjsm1dg4ofPnt2tigm/PrcTT0KEd9/25opdO6Np/fq3U6QAAAACbElUUNgy3e04PP3xFTqepxsZJ/fznu0udEoqkzF2lpk8/q8TEkH77y78udToAAADApkWRjw3DNA0lk4YkU4kEr9jbSu548K/k3BbU5X/7E2v9PQAAAID8UeRjw5iddegnP2lWQ8Ok+vvX/g50bA7bdt4lb2uXBl//jiZv9JY6HQAAAGBTo8jHhhIOuxUOu0udBorI7Usty4j2/U+JMwEAAAA2P56JBlBS7tpdMhMzio+HSp0KAAAAsOlR5AMoKVftLs1E3pdMs9SpAAAAAJseRT6AknLX7tJM5Hqp0wAAAABsgSIfQOkYhty1OxWnyAcAAAAKgiIfQMm4qupkON3M5AMAAAAFQpEPoGTKa3ZIkmYjH5Q4EwAAAMAeKPIBlI5RJkkyk4kSJwIAAADYg7PUCQDZHD0aUmdnWGfO+NXdXVfqdAAAAABgU2AmHxvSwYNhuVxJHTwYLnUqAAAAALBpUORjQzp71q943KGzZ/2lTgUAAAAANg0e18eG1N1dx2P6AAAAAJAnq8h3uVxFD16KmMQlLnE3Tlyn02n9mWt/m/l6iUtc4hKXuMQlLnGJS9z1ZhX58Xi8KAHnK0VMl8tF3CLZSte71eJKhRnfRCJh/ZlLf1vtPm/28c3XVrvPjC9x18tWut6tFldifO0cV2J87RxXKt74siYfAAAAAACboMgHAAAAAMAmKPIBAAAAALAJinwAAAAAAGyCIh8AAAAAAJugyAcAAAAAwCacK58CFN/RoyF1doZ15oxf3d11pU4HAAAAADYFZvKxIR08GJbLldTBg+FSpwIAAAAAmwZFPjaks2f9iscdOnvWX+pUAAAAAGDT4HF9bEjd3XU8pg8AAAAAeWImHwAAAAAAm6DIBwAAAADAJijyAQAAAACwCYp8AAAAAABsgiIfAAAAAACboMgHAAAAAMAmKPIBlEx8bFCh//snxccGS50KAAAAYAvOUieA3H3/D9yrbLnadmsxXaK4Im5RFGp8w5K+L92nPPqzz31+tntWF8NmwfsFAADA1kWRv8n8x+VyvT9hlDoNAGuwq8rUsQ/NljoNAAAA2BBF/ibz/oShgWhZqdMAsAaGkqVOAQAAADbFmnwAAAAAAGyCIh8AAAAAAJugyAcAAAAAwCYo8gEAAAAAsAk23tsqtnlleAOSuzL19cyUzOiwNBEtbV4AAAAAgIKhyLczR5mM3ftkNO2VPDWLPjYkaTIm89oFmVd/IyXnip4iAAAAAKBwKPLtqjYoo7NLhqd6+fM8NTL2HpGa9sk8c0KKDBUnPwAAAABAwbEm34aMhjvl+NhDKxf489t4qlNtGu5cx8wAAAAAAOvJKUkej6ckwb1eb0nibl7TK59SG5TR+QnJUZZ/944yGZ2fkDk9wYw+UEQb8WfhRswJhcP42hvja2+Mr70xvvZWrPF1StLk5KTi8XhRAqZ5vV5Fo8Xf9M3lchX9WgsX1738x44yGZ1dqyvwF/Rh/u/Pll2jX7nT0LbWMrmDhhITpsJvzCkxbq4+bg6SdZ/SZz//SfkMY9FnAy99Vb/oLf2DKcmOP9aXju1fdNwcelUv/sMvFHaUPkdp+XtpXnxR3/1pT0HitD3ynB78cCrGyJvf1st6TI/dW6+RN7+tfz0xmHd//q6v5NU+3/NLZamfhaX6ecXPZ3vHZXztHZfxtXdcxtfecRlfe8ct5viyJt9GjN37ln1Ef248qkRsRMmpCTk81XL66lSW3m1/fj+eamn3PpnvncsexzDk+x2nZm6aGjqRkKvGUP3vOTV2cU6xs8mCXc9SFhZs/q6v6LFjz+uPgsUr5NoeeU4PtPXqlWf+WX1ZCvf5OSaTh/Xppx/V8afrljy/VLIVv22PPKcnnjq+5sI4dY9Cevufvqm3Qqlr9netKd0VYi09HgAAAMBWQZFvJ7v2Zj1szsU1eaFH0+8PZBw3HGWqar9b5Xc0Z+9riSLfcev3AqOnEpqbkGaHTNXeVSZXzeJZ4WIIn/iWfhl4Tg8c/V21vbr+RV4yuUM+X+7nOxw9+q+fH9CXju1X6wGpr3f9ciuEvp/+pS7UfUqf/fyT+mLgR6ua1bfu0XCv+m/I2v0jfOJbeuHE6nPL1n658VhrPAAAAGCzYcrLLqpqZWxb/Jo8SZo4f0ozH1yRp+2QaruOyf/gcdV+/PdVsatVZTXbs7YxttVIVbVZPyu7tYXD3MSCNmtYJbBW4eGQpKB8DaXLwU4coZf1cndIxoeP66GO9X86AwAAAEBhMJNvE0aNP+vxxHhEMx+8p217P6KK3W3W8bJtNfLsvWvFPs3xyLLnuGoNGa7U3x3lhsqDWdZ4x6V4ZH3X6y9n/rpwSTLNc0s+1r3Suek13in79eDXn9eDyv7Y+3zBYFCmeVMjWfYzXBgzW1/Z1vov3IcgndvAS1/VpX3fzOhzNXsWDL36qgaOPqrmfR+RejNn85fLOfMe3a/Hvn6/TPOm3vneN9Ud/Jy+dGx/Rj755J2+D+njK43HwvOXu4Zs3xeFvqcAAADAeqPIt4ssa+slKREZliS56ncWrE9j3mZt3k6H3HWpQsdVayjYtfhbaiaU1PDrS2/it1bJ5A7taauThl/LeDQ8vRa+Wb365d+kirdkcoeOfuFJPfD01+T73u214rmeGz7xLf3dq6njdwdyWwOe7Phja/O3dLyMmMOv6Yd/k9qUL1WUfllfDNze/C5Z9yl9dt+7euFvf2C1bXvkOT3w8Nd0z9A3M/qUpJZjz0svfVUv/PT2Ndy9xLnLu6GRYam57YDakqdu3ZOVc864R3pt3oaDDim4dLTV5L2q8cjj+6Lw9xQAAABYX/zrdIso5Gr5maGkfvuT4u9IuZS9n3lSdwdCeuelzN3r937mUTUrpHe+d7vwczgG1f0PP9Jl1enuYw/Jn0zmfW4ufPd+WU889Q098dQ39KVj+2VefHHR7HwqZq9embfrvqP3B/rlRVNqu1/31KXiOUIv618XrIu/8MZrGlWd7r7vI4timxdftGaYHY5Bdb+09LnLcTgGNTKSeSzXnFejUHmvZDVjXazcAAAAgLViJt8uZqayHnbVBlIfD15V5Yf2FaTPUvPd+2U9ce/tr82LL+q7z/Zo/u+sksnDam2T1PfqoplWh6NHl/oeVXNbh/Y0/EJDN3I/NxzKLcfM3fVTM79PPHXcesT7dn7vLpp5Dg+HZHy4Xr6gpCzx5r/+LtsiiMu/OZVxL3TjpkYlZd99IXdryTkX65X3fPl8X8wf62LkBgAAABQCRb5NmLFw1tn6sqpauXfs1lT/WclMqvyOZjnK3UrEIpoeOCdnzXZVth5Y3ZcXYAAADLFJREFUss+NaH4BnVpXfVwPdZzKXB/dUK/tkkaHb2TtIzwcktpWce4qpGeJfU8/quZ7H5L/3V9o6FZM48PH9cRTx5dtn368vCXLO+3z4quXP5nMeNph+bjpHfJDCkvWfcol54LKM+9lFXqsC5kbAAAAUAAU+XYxHpE5Ecu6w76n/aOSpMn+s5rsP2sdN5wuuRt3Z+3OnIhJK2y6txFc+PF35PvCk7r74c+p7d2N+47027PEdfJLSu+/Z158cZlX1KXXf6cK/PTmdW+F5q2NX8+kGzrVEpDUdzOjiF0pZwAAAAClQ5FvJ9cvSHuPLDrscLpUdfCoKprblYgMy4zPqsxTLVegQUaZa+m+NgGHY1Ddb/bqo8f264HPfER96eLz1uPUzYEGSYt3vfcH6iT1auSGJOVxbqFq2PTj3ivNBN8qtG8X1sUrooPtHdqukN5549aj6rnmvJHl832xCS8PAAAA4J+xNmJe/Y3MybElP3dW1apiZ6sqP9Su8vpdSxb45uSYzKu/Wa80Cy698dv8d7qnZs6VdTO4hWvL8zl3tax+bj36bsUMdGhPwyo6PHBg7Y/vLyP9RoDR7h9aa9fXnPMGUIyxBgAAAEqJf8naSXJO5pkTUnINr6vLs4/h1+f025/El/1vPV+fl3bhjdc0YpqpNe+3dka/8ONbu6V//nNqu3Us/fh7s3r1yo9P3W6fx7kOx6D6+0IyjP1aYjuDDLf7yXwDgLVD/ryYUqrA/uIjh1Nf3DijgWFJbQdu51X3KX324Y5V36uVcr3nT5+z3i2/8I0AOeVcZPmORz5jDQAAAGw2PK5vN5EhmWdel9H5CclRll/b5JzMM69LkaGVz91gHKGX9XJ3hx67934d/8xNffenPXI4evRfz9zQ0S88qQe//rwevHWuOfSqXnwm83V7+ZwrSUOv/lBvtz2pjx57Xk8cy9wMUMryBoBsMUMv61+eualPP/1oZsx5a97nb9qXPsc0z+mVZ36k1gKsyV+YZzr+C/+YfWlALjmXwkrjMV++Yw0AAABsJsbjjz9u9vT0KB4v7nvPvV6votFoUWNKksvlKvq1Firu9//ArRfedWsgmkPxXhuU0dklw1OdU9/m5FhqBn8TFvjAZtPqTeqLB6b1bPesLoazvQgxpVQ/r/j5bO+4jK+94zK+9o7L+No7LuNr77jFGN8jR1L7szGTb1eRIZn/+zNp9z4ZTXslz+Jd9yVJkzGZ1y6k1uCv5TF/AAAAAEDJUeTbWXJO5nvnZL53TtrmleENSO7K1GczUzKjw9JE8X9bCAAAAABYHxT5W8VEVCYFPQAAAADYGjtMAQAAAABgExT5AAAAAADYBEU+AAAAAAA2UbA1+V1dXYuOmaapRCKhWCym69evKxKJFCrchpW+DydOnFjTOQAAAAAA5GtdZ/INw5DL5ZLf71dnZ6dqa2vXMxwAAAAAAFtawXfXnz87nS7y9+zZo2AwqDvvvFOnT58udEgAAAAAAKB1foWeaZqanZ1Vf3+/gsGgqqurMz73eDxqbm7W9u3bJUkjIyMaGBhQTU2N2tvbFQqFdP78eev8QCCg/fv36/z58wqFQtbxu+66SzU1Nert7dXQ0JAqKirU3Nwsv99v9dvf36/Z2VmrTfqR+dOnT6ujo0MTExPWLyByaS9J1dXVam1tVVVVlcbGxjJyzUV5ebna29tVU1OjsbExXbp0SWNjY6qsrNSRI0c0PT2tkydPZrTZVWXKUDKvOAA2lp1V/D8MAACA9bGuRX6aYRiLjrlcLu3fv18ul8s6FgwG5fV61dPTo2QyKZ/PJ8MwZJqm9bmUKvbTRX5ZWZmqq6uVTCY1MjIil8ulw4cPy+12Z/RbVVWlt99+e1EeLS0tcrlcmpqasvJarn0ymfrHeUVFhQ4dOqSysjJJUm1trdrb2/O6L+3t7dYSBq/Xq0OHDuntt9/W1NSUwuGwAoGA6urqMn6hcexDs0t1BwAAAADY4ta1yHc4HPJ4PGppaZGkjI33Ghoa5HK5NDY2pt7eXklSR0eHqqurtXPnTo2MjCgQCMjr9SoSicgwDPn9fpmmKb/fL4fDoWQyKa/XK8MwNDo6qrm5Oe3evVtut1vhcFh9fX0yTVNtbW0KBAK64447dOPGjYwcZ2ZmrF8qSNKuXbuWbX/9+nXrvLKyMsViMZ0/f14OhyPvIt/lcunkyZMyTdO69qamJvX19enatWsKBAJqamqyivxnuynwATu5FjVLnQIAAABspuBFfrZd9iUpmUzqypUr1tdVVVWSpIGBAU1PT0uSLl26pMOHD8vn8+nKlSsKBALy+XyKRCLy+XxyOp0aHBzUjh075PP5NDw8bM2EDw0NSUrN8ktSf3+/ZmZmrL8HAgEFg8FFRf61a9esAj+X9uki3+fzLcp/YGBAnZ2dOd+r/v5+6wmCgYEBHTp0yFq6EIvFFI1G5fV65ff7FQ6HdTFMQQAAAAAAWNq6r8mPx+OKxWK6evWqxsbGrM/Sj8PPPzY+Pm59Fg6HrVn7y5cvKxgMWr8oaGhoUF1dXUaRPzw8LCn1GL0k3XPPPYvy8Xg8i46li+y0XNun80/nvPBacrHUtaddu3ZNBw4cUFNTk8LhsOrr67Vv375FexUs5Pf7deDAAUWjUZ07d04+n29Ru3xe47fw3IVf33fffXI4sr+oIZFI6Fe/+pUkqa6uTi0tLdY1Tk9Pq7e3N+/7thyXy6V4PF6w/oibndfrVTQaLXrcrXafAQAAgHxZRf78tfFr8eabby752fwYpmlau++nC8T0+vb0Z9FoVLW1taqurlYgEFAsFlMymdTY2Jj8fr88Ho9qamoUi8Vyugan05n1vFyv3el0Zm27MP+l+lx4zOl0Lts2FotpcnJSXq9XPp/P2pMgEoksm/P8dtXV1cu2y2fcV9N2/j0bHR3VO++8o5qaGu3Zs0cVFRU6fPiw+vr6FA6Hc84j3zyLhbjEJS5xiUtc4hKXuMQlLnFLHdcq8gs1S5VrP/F4XG63WxUVFdZa/W3btklKrZOPx+O6efOmamtr1djYKKfTqeHhYcXjcQ0NDammpkY7d+6UJIVCISvu7OysKioq9NZbb1mP0c+3cEZuYb4rtU+bnp6Wx+OR2+22ZjQrKyuX7DfbTGB5ebk1i51evjA1NZVx3tWrV7Vv3z7V19dnLE1Y6T6n2+3YsWPZdvmM+1Jts92z5WZ6w+GwYrGYmpqatGvXLu3Zs2fRMorV2mozvaWcYd5K17vV4kqMr53jSoyvneNKjK+d40qMr53jSoyvneNKxRvf7M9YF0G6uG1paVFFRYUqKiqsDfpGR0cl3X4Ev76+XpKs2d70n42NjRnnSanX3UmyZopdLpeamprU1dWlgwcPrphXru3TObS2tqqyslIVFRVqbW3N6x60tLSovLxcHo/HapuOnxYKhTQ9Pa36+no5nU5Fo9GcvjnS7YLBYF7tViPbPauvr190z44ePaquri4Fg0HNzc1Z4zw3N7cueQEAAADAVlOUV+hlc+PGDetx8vnr3+PxuK5evWr9fXR0VNu3b9f09LS1fn5yclLT09OqqKjQ2NhYxoz7lStXFAwG5ff7rffcS6mN/9L9LifX9teuXVNDQ4Oqq6v1sY99TNLtzf9yFY/HdfTo0Yyv0xv7pZmmqffff9/6JUCuj7Wvtt1q5HrPhoeH1djYqI6Ojoz2g4OD65YbAAAAAGwlJZvJj8fj6unpUTgc1tzcnBKJhIaGhnTq1CnNzt5+VVy6cF5YpKZn7+fP4kupR8d7eno0PDysRCKhubk5RSIRnT17NqeNwnJtH4/Hdfr0aevVfZFIRP39/Xndg76+PkWjUSWTSUUiEfX09GRce9rg4KD1BoB8ivXVtstXtns2Pj6+6J5dvnxZH3zwgWZmZpRMJjUzM6Pr16/n9MsXAAAAAMDKjMcff9zs6ekp+roEdufOXXq3/MnJSf36179e93aFwPjaOy7ja++4jK+94zK+9o7L+No7LuNr77iMr73jFmN8jxw5IqmEj+tjZU6nU06nU3feeackLXqUv9DtAAAAAACbG0X+Bvbxj3/c+vv4+HjOa9fnt5uYmGDNOwAAAABsERT5G9jU1JTcbrdGR0fV19e3qnbvvffeOmYIAAAAANhIKPI3sJMnT665ncvlKlQ6AAAAAIANrmS76wMAAAAAgMKiyAcAAAAAwCYo8gEAAAAAsAmKfAAAAAAAbIIiHwAAAAAAm6DIBwAAAADAJijyAQAAAACwCYp8AAAAAABsgiIfAAAAAACboMgHAAAAAMAmKPIBAAAAALAJinwAAAAAAGyCIh8AAAAAAJtwStLhw4dLnQcAAAAAAFij/wdwjzRG2KuM3wAAAABJRU5ErkJggg==;" parent="WIyWlLk6GJQsqaUBKTNV-1" vertex="1">
          <mxGeometry x="1240" y="1380" width="1017" height="598" as="geometry" />
        </mxCell>
        <mxCell id="QcseVXZ3q09le6irkAD_-62" value="" style="rounded=0;whiteSpace=wrap;html=1;" parent="WIyWlLk6GJQsqaUBKTNV-1" vertex="1">
          <mxGeometry x="410" y="210" width="920" height="690" as="geometry" />
        </mxCell>
        <mxCell id="QcseVXZ3q09le6irkAD_-63" value="" style="rounded=0;whiteSpace=wrap;html=1;" parent="WIyWlLk6GJQsqaUBKTNV-1" vertex="1">
          <mxGeometry x="460" y="290" width="370" height="390" as="geometry" />
        </mxCell>
        <mxCell id="QcseVXZ3q09le6irkAD_-64" style="rounded=0;orthogonalLoop=1;jettySize=auto;html=1;fillColor=#e1d5e7;strokeColor=#9673a6;strokeWidth=3;" parent="WIyWlLk6GJQsqaUBKTNV-1" source="QcseVXZ3q09le6irkAD_-65" target="QcseVXZ3q09le6irkAD_-72" edge="1">
          <mxGeometry relative="1" as="geometry" />
        </mxCell>
        <mxCell id="QcseVXZ3q09le6irkAD_-65" value="Sharding(0-3)" style="text;html=1;strokeColor=none;fillColor=none;align=center;verticalAlign=middle;whiteSpace=wrap;rounded=0;" parent="WIyWlLk6GJQsqaUBKTNV-1" vertex="1">
          <mxGeometry x="470" y="300" width="80" height="30" as="geometry" />
        </mxCell>
        <mxCell id="QcseVXZ3q09le6irkAD_-66" style="edgeStyle=orthogonalEdgeStyle;rounded=0;orthogonalLoop=1;jettySize=auto;html=1;entryX=0.5;entryY=0;entryDx=0;entryDy=0;fillColor=#f8cecc;strokeColor=#b85450;strokeWidth=3;" parent="WIyWlLk6GJQsqaUBKTNV-1" source="QcseVXZ3q09le6irkAD_-67" target="QcseVXZ3q09le6irkAD_-72" edge="1">
          <mxGeometry relative="1" as="geometry" />
        </mxCell>
        <mxCell id="QcseVXZ3q09le6irkAD_-67" value="Sharding(4)" style="text;html=1;strokeColor=none;fillColor=none;align=center;verticalAlign=middle;whiteSpace=wrap;rounded=0;" parent="WIyWlLk6GJQsqaUBKTNV-1" vertex="1">
          <mxGeometry x="590" y="300" width="80" height="30" as="geometry" />
        </mxCell>
        <mxCell id="QcseVXZ3q09le6irkAD_-68" style="rounded=0;orthogonalLoop=1;jettySize=auto;html=1;fillColor=#008a00;strokeColor=#005700;strokeWidth=2;" parent="WIyWlLk6GJQsqaUBKTNV-1" source="QcseVXZ3q09le6irkAD_-69" target="QcseVXZ3q09le6irkAD_-72" edge="1">
          <mxGeometry relative="1" as="geometry" />
        </mxCell>
        <mxCell id="QcseVXZ3q09le6irkAD_-69" value="Sharding(5-9)" style="text;html=1;strokeColor=none;fillColor=none;align=center;verticalAlign=middle;whiteSpace=wrap;rounded=0;" parent="WIyWlLk6GJQsqaUBKTNV-1" vertex="1">
          <mxGeometry x="710" y="300" width="80" height="30" as="geometry" />
        </mxCell>
        <mxCell id="QcseVXZ3q09le6irkAD_-70" style="rounded=0;orthogonalLoop=1;jettySize=auto;html=1;fillColor=#e1d5e7;strokeColor=#9673a6;strokeWidth=3;" parent="WIyWlLk6GJQsqaUBKTNV-1" source="QcseVXZ3q09le6irkAD_-72" target="QcseVXZ3q09le6irkAD_-73" edge="1">
          <mxGeometry relative="1" as="geometry" />
        </mxCell>
        <mxCell id="QcseVXZ3q09le6irkAD_-71" style="rounded=0;orthogonalLoop=1;jettySize=auto;html=1;fillColor=#008a00;strokeColor=#005700;strokeWidth=2;" parent="WIyWlLk6GJQsqaUBKTNV-1" source="QcseVXZ3q09le6irkAD_-72" target="QcseVXZ3q09le6irkAD_-85" edge="1">
          <mxGeometry relative="1" as="geometry" />
        </mxCell>
        <mxCell id="dY82TSoNa7luQCaC44QS-1" style="edgeStyle=orthogonalEdgeStyle;rounded=0;orthogonalLoop=1;jettySize=auto;html=1;fillColor=#ffe6cc;strokeColor=#D79B00;strokeWidth=2;" edge="1" parent="WIyWlLk6GJQsqaUBKTNV-1" source="QcseVXZ3q09le6irkAD_-72" target="dY82TSoNa7luQCaC44QS-0">
          <mxGeometry relative="1" as="geometry" />
        </mxCell>
        <mxCell id="QcseVXZ3q09le6irkAD_-72" value="proxy SQL" style="ellipse;whiteSpace=wrap;html=1;aspect=fixed;" parent="WIyWlLk6GJQsqaUBKTNV-1" vertex="1">
          <mxGeometry x="590" y="360" width="80" height="80" as="geometry" />
        </mxCell>
        <mxCell id="dY82TSoNa7luQCaC44QS-5" style="edgeStyle=orthogonalEdgeStyle;rounded=0;orthogonalLoop=1;jettySize=auto;html=1;strokeWidth=2;fillColor=#dae8fc;strokeColor=#6c8ebf;" edge="1" parent="WIyWlLk6GJQsqaUBKTNV-1" source="QcseVXZ3q09le6irkAD_-73" target="dY82TSoNa7luQCaC44QS-0">
          <mxGeometry relative="1" as="geometry" />
        </mxCell>
        <mxCell id="QcseVXZ3q09le6irkAD_-73" value="(0-4)Master" style="shape=cylinder3;whiteSpace=wrap;html=1;boundedLbl=1;backgroundOutline=1;size=15;" parent="WIyWlLk6GJQsqaUBKTNV-1" vertex="1">
          <mxGeometry x="470" y="480" width="95" height="70" as="geometry" />
        </mxCell>
        <mxCell id="QcseVXZ3q09le6irkAD_-74" value="" style="rounded=0;whiteSpace=wrap;html=1;" parent="WIyWlLk6GJQsqaUBKTNV-1" vertex="1">
          <mxGeometry x="900" y="290" width="370" height="390" as="geometry" />
        </mxCell>
        <mxCell id="QcseVXZ3q09le6irkAD_-75" style="rounded=0;orthogonalLoop=1;jettySize=auto;html=1;fillColor=#e1d5e7;strokeColor=#9673a6;strokeWidth=3;" parent="WIyWlLk6GJQsqaUBKTNV-1" source="QcseVXZ3q09le6irkAD_-76" target="QcseVXZ3q09le6irkAD_-83" edge="1">
          <mxGeometry relative="1" as="geometry" />
        </mxCell>
        <mxCell id="QcseVXZ3q09le6irkAD_-76" value="Sharding(0-3)" style="text;html=1;strokeColor=none;fillColor=none;align=center;verticalAlign=middle;whiteSpace=wrap;rounded=0;" parent="WIyWlLk6GJQsqaUBKTNV-1" vertex="1">
          <mxGeometry x="910" y="300" width="80" height="30" as="geometry" />
        </mxCell>
        <mxCell id="QcseVXZ3q09le6irkAD_-77" style="edgeStyle=orthogonalEdgeStyle;rounded=0;orthogonalLoop=1;jettySize=auto;html=1;entryX=0.5;entryY=0;entryDx=0;entryDy=0;fillColor=#a20025;strokeColor=#6F0000;strokeWidth=2;" parent="WIyWlLk6GJQsqaUBKTNV-1" source="QcseVXZ3q09le6irkAD_-78" target="QcseVXZ3q09le6irkAD_-83" edge="1">
          <mxGeometry relative="1" as="geometry" />
        </mxCell>
        <mxCell id="QcseVXZ3q09le6irkAD_-78" value="Sharding(4)" style="text;html=1;strokeColor=none;fillColor=none;align=center;verticalAlign=middle;whiteSpace=wrap;rounded=0;" parent="WIyWlLk6GJQsqaUBKTNV-1" vertex="1">
          <mxGeometry x="1030" y="300" width="80" height="30" as="geometry" />
        </mxCell>
        <mxCell id="QcseVXZ3q09le6irkAD_-79" style="rounded=0;orthogonalLoop=1;jettySize=auto;html=1;fillColor=#008a00;strokeColor=#005700;strokeWidth=2;" parent="WIyWlLk6GJQsqaUBKTNV-1" source="QcseVXZ3q09le6irkAD_-80" target="QcseVXZ3q09le6irkAD_-83" edge="1">
          <mxGeometry relative="1" as="geometry" />
        </mxCell>
        <mxCell id="QcseVXZ3q09le6irkAD_-80" value="Sharding(5-9)" style="text;html=1;strokeColor=none;fillColor=none;align=center;verticalAlign=middle;whiteSpace=wrap;rounded=0;" parent="WIyWlLk6GJQsqaUBKTNV-1" vertex="1">
          <mxGeometry x="1150" y="300" width="80" height="30" as="geometry" />
        </mxCell>
        <mxCell id="QcseVXZ3q09le6irkAD_-81" style="rounded=0;orthogonalLoop=1;jettySize=auto;html=1;fillColor=#e1d5e7;strokeColor=#9673a6;strokeWidth=3;" parent="WIyWlLk6GJQsqaUBKTNV-1" source="QcseVXZ3q09le6irkAD_-83" target="QcseVXZ3q09le6irkAD_-84" edge="1">
          <mxGeometry relative="1" as="geometry" />
        </mxCell>
        <mxCell id="QcseVXZ3q09le6irkAD_-82" style="rounded=0;orthogonalLoop=1;jettySize=auto;html=1;strokeWidth=2;fillColor=#60a917;strokeColor=#2D7600;" parent="WIyWlLk6GJQsqaUBKTNV-1" source="QcseVXZ3q09le6irkAD_-83" target="QcseVXZ3q09le6irkAD_-86" edge="1">
          <mxGeometry relative="1" as="geometry" />
        </mxCell>
        <mxCell id="dY82TSoNa7luQCaC44QS-14" style="edgeStyle=orthogonalEdgeStyle;rounded=0;orthogonalLoop=1;jettySize=auto;html=1;strokeWidth=2;fillColor=#a20025;strokeColor=#6F0000;" edge="1" parent="WIyWlLk6GJQsqaUBKTNV-1" source="QcseVXZ3q09le6irkAD_-83" target="dY82TSoNa7luQCaC44QS-3">
          <mxGeometry relative="1" as="geometry" />
        </mxCell>
        <mxCell id="QcseVXZ3q09le6irkAD_-83" value="proxy SQL" style="ellipse;whiteSpace=wrap;html=1;aspect=fixed;" parent="WIyWlLk6GJQsqaUBKTNV-1" vertex="1">
          <mxGeometry x="1030" y="360" width="80" height="80" as="geometry" />
        </mxCell>
        <mxCell id="QcseVXZ3q09le6irkAD_-84" value="(0-4) Slave" style="shape=cylinder3;whiteSpace=wrap;html=1;boundedLbl=1;backgroundOutline=1;size=15;" parent="WIyWlLk6GJQsqaUBKTNV-1" vertex="1">
          <mxGeometry x="910" y="480" width="95" height="70" as="geometry" />
        </mxCell>
        <mxCell id="QcseVXZ3q09le6irkAD_-85" value="(5-9) Slave" style="shape=cylinder3;whiteSpace=wrap;html=1;boundedLbl=1;backgroundOutline=1;size=15;" parent="WIyWlLk6GJQsqaUBKTNV-1" vertex="1">
          <mxGeometry x="702.5" y="475" width="95" height="70" as="geometry" />
        </mxCell>
        <mxCell id="QcseVXZ3q09le6irkAD_-86" value="(5-9)Master" style="shape=cylinder3;whiteSpace=wrap;html=1;boundedLbl=1;backgroundOutline=1;size=15;" parent="WIyWlLk6GJQsqaUBKTNV-1" vertex="1">
          <mxGeometry x="1142.5" y="480" width="95" height="70" as="geometry" />
        </mxCell>
        <mxCell id="QcseVXZ3q09le6irkAD_-87" style="edgeStyle=orthogonalEdgeStyle;rounded=0;orthogonalLoop=1;jettySize=auto;html=1;entryX=0.5;entryY=1;entryDx=0;entryDy=0;entryPerimeter=0;strokeWidth=2;fillColor=#d80073;strokeColor=#A50040;" parent="WIyWlLk6GJQsqaUBKTNV-1" source="QcseVXZ3q09le6irkAD_-73" target="QcseVXZ3q09le6irkAD_-84" edge="1">
          <mxGeometry relative="1" as="geometry">
            <Array as="points">
              <mxPoint x="518" y="570" />
              <mxPoint x="958" y="570" />
            </Array>
          </mxGeometry>
        </mxCell>
        <mxCell id="QcseVXZ3q09le6irkAD_-88" value="synchronization" style="edgeLabel;html=1;align=center;verticalAlign=middle;resizable=0;points=[];" parent="QcseVXZ3q09le6irkAD_-87" vertex="1" connectable="0">
          <mxGeometry x="0.1521" y="1" relative="1" as="geometry">
            <mxPoint as="offset" />
          </mxGeometry>
        </mxCell>
        <mxCell id="QcseVXZ3q09le6irkAD_-89" style="edgeStyle=orthogonalEdgeStyle;rounded=0;orthogonalLoop=1;jettySize=auto;html=1;entryX=0.5;entryY=1;entryDx=0;entryDy=0;entryPerimeter=0;fillColor=#d80073;strokeColor=#A50040;strokeWidth=2;" parent="WIyWlLk6GJQsqaUBKTNV-1" source="QcseVXZ3q09le6irkAD_-86" target="QcseVXZ3q09le6irkAD_-85" edge="1">
          <mxGeometry relative="1" as="geometry">
            <Array as="points">
              <mxPoint x="1190" y="590" />
              <mxPoint x="750" y="590" />
            </Array>
          </mxGeometry>
        </mxCell>
        <mxCell id="QcseVXZ3q09le6irkAD_-90" value="synchronization&lt;br&gt;" style="edgeLabel;html=1;align=center;verticalAlign=middle;resizable=0;points=[];" parent="QcseVXZ3q09le6irkAD_-89" vertex="1" connectable="0">
          <mxGeometry x="-0.0705" y="-1" relative="1" as="geometry">
            <mxPoint as="offset" />
          </mxGeometry>
        </mxCell>
        <mxCell id="dY82TSoNa7luQCaC44QS-0" value="shard(4)" style="shape=cylinder3;whiteSpace=wrap;html=1;boundedLbl=1;backgroundOutline=1;size=15;" vertex="1" parent="WIyWlLk6GJQsqaUBKTNV-1">
          <mxGeometry x="590" y="480" width="80" height="70" as="geometry" />
        </mxCell>
        <mxCell id="dY82TSoNa7luQCaC44QS-12" value="4. synchronization" style="edgeStyle=orthogonalEdgeStyle;rounded=0;orthogonalLoop=1;jettySize=auto;html=1;fillColor=#6a00ff;strokeColor=#3700CC;strokeWidth=2;" edge="1" parent="WIyWlLk6GJQsqaUBKTNV-1" source="dY82TSoNa7luQCaC44QS-3" target="dY82TSoNa7luQCaC44QS-0">
          <mxGeometry relative="1" as="geometry">
            <Array as="points">
              <mxPoint x="1070" y="660" />
              <mxPoint x="630" y="660" />
            </Array>
          </mxGeometry>
        </mxCell>
        <mxCell id="dY82TSoNa7luQCaC44QS-3" value="shard(4)" style="shape=cylinder3;whiteSpace=wrap;html=1;boundedLbl=1;backgroundOutline=1;size=15;" vertex="1" parent="WIyWlLk6GJQsqaUBKTNV-1">
          <mxGeometry x="1030" y="480" width="80" height="70" as="geometry" />
        </mxCell>
        <mxCell id="dY82TSoNa7luQCaC44QS-6" value="&#xa;&lt;span style=&quot;color: rgb(0, 0, 0); font-family: Helvetica; font-size: 12px; font-style: normal; font-variant-ligatures: normal; font-variant-caps: normal; font-weight: 400; letter-spacing: normal; orphans: 2; text-align: center; text-indent: 0px; text-transform: none; widows: 2; word-spacing: 0px; -webkit-text-stroke-width: 0px; background-color: rgb(251, 251, 251); text-decoration-thickness: initial; text-decoration-style: initial; text-decoration-color: initial; float: none; display: inline !important;&quot;&gt;1 Read Only&lt;/span&gt;&#xa;&#xa;" style="text;html=1;strokeColor=none;fillColor=none;align=center;verticalAlign=middle;whiteSpace=wrap;rounded=0;" vertex="1" parent="WIyWlLk6GJQsqaUBKTNV-1">
          <mxGeometry x="560" y="331" width="70" height="30" as="geometry" />
        </mxCell>
        <mxCell id="dY82TSoNa7luQCaC44QS-10" style="edgeStyle=orthogonalEdgeStyle;rounded=0;orthogonalLoop=1;jettySize=auto;html=1;fillColor=#dae8fc;strokeColor=#6c8ebf;strokeWidth=2;" edge="1" parent="WIyWlLk6GJQsqaUBKTNV-1" source="QcseVXZ3q09le6irkAD_-73" target="dY82TSoNa7luQCaC44QS-3">
          <mxGeometry relative="1" as="geometry">
            <Array as="points">
              <mxPoint x="517" y="620" />
              <mxPoint x="1070" y="620" />
            </Array>
          </mxGeometry>
        </mxCell>
        <mxCell id="dY82TSoNa7luQCaC44QS-11" value="2. DataX 离线同步" style="edgeLabel;html=1;align=center;verticalAlign=middle;resizable=0;points=[];" vertex="1" connectable="0" parent="dY82TSoNa7luQCaC44QS-10">
          <mxGeometry x="-0.1791" y="1" relative="1" as="geometry">
            <mxPoint x="-1" as="offset" />
          </mxGeometry>
        </mxCell>
        <mxCell id="dY82TSoNa7luQCaC44QS-13" value="&lt;br&gt;3. R&amp;amp;W" style="text;html=1;strokeColor=none;fillColor=none;align=center;verticalAlign=middle;whiteSpace=wrap;rounded=0;" vertex="1" parent="WIyWlLk6GJQsqaUBKTNV-1">
          <mxGeometry x="1005" y="310" width="70" height="30" as="geometry" />
        </mxCell>
      </root>
    </mxGraphModel>
  </diagram>
</mxfile>
